<?xml version="1.0" encoding="UTF-8"?>
<svg version="1.1" xmlns="http://www.w3.org/2000/svg" width="344" height="344">
<path d="M0 0 C1.24716797 0.87785156 1.24716797 0.87785156 2.51953125 1.7734375 C6.58205495 4.69048604 6.58205495 4.69048604 8 6 C8 6.66 8 7.32 8 8 C8.66 8 9.32 8 10 8 C22.0948227 19.40835979 32.47884756 36.90826665 37 53 C37.02349579 54.66650104 37.02611632 56.33353796 37 58 C37.7027002 58.12528076 38.40540039 58.25056152 39.12939453 58.37963867 C80.17615663 65.73682534 80.17615663 65.73682534 97.703125 71.9296875 C102.39451024 73.45272015 107.12225088 74.32056301 112 75 C112 76.32 112 77.64 112 79 C111.154375 79.515625 110.30875 80.03125 109.4375 80.5625 C99.88216045 86.42590897 95.60209674 100.99315479 91.25 110.875 C90.26075446 113.10478941 89.26899873 115.33340964 88.27386475 117.56057739 C87.66116916 118.93343859 87.05208762 120.30792073 86.44732666 121.68429565 C84.84885369 125.28344139 83.10558197 128.67133432 81 132 C85.33261437 132.15473623 89.00722524 132.12390179 93.1875 130.9375 C97 130 97 130 102 131 C101.67 148.49 101.34 165.98 101 184 C97.1526731 182.7175577 93.42518707 181.39402717 89.66447449 179.90667725 C80.50154732 176.3207337 71.2748632 173.89839269 61.6875 171.75 C60.21527742 171.40979348 58.74327124 171.0686491 57.27148438 170.7265625 C46.70200889 168.28774896 36.17206693 166.11909158 25.375 165 C19.46691877 164.35061614 13.77061727 163.4688844 8 162 C7.62875 162.87011719 7.62875 162.87011719 7.25 163.7578125 C2.26290782 172.7034091 -9.45194572 179.21515083 -19 182 C-20.50180336 182.64162868 -22.00157518 183.28802041 -23.5 183.9375 C-46.46419881 193.12317952 -69.48549951 190.56794316 -92 182 C-92.81597656 181.70480469 -93.63195312 181.40960938 -94.47265625 181.10546875 C-102.33509029 177.98047228 -116.17954522 170.64090956 -120 163 C-149.25754153 166.11910465 -180.07856612 171.53428848 -206.49609375 184.99609375 C-209 186 -209 186 -212 185 C-211.98120789 184.16270859 -211.98120789 184.16270859 -211.96203613 183.3085022 C-211.27617511 152.53457109 -210.83880021 121.78171959 -211 91 C-211.60231445 90.71463379 -212.20462891 90.42926758 -212.82519531 90.13525391 C-215.79918735 88.58282205 -218.17584811 86.52012657 -220.75 84.375 C-221.73484375 83.55773437 -222.7196875 82.74046875 -223.734375 81.8984375 C-224.48203125 81.27195312 -225.2296875 80.64546875 -226 80 C-225.67 79.01 -225.34 78.02 -225 77 C-223.2512207 76.12792969 -223.2512207 76.12792969 -220.92578125 75.421875 C-220.04599609 75.15165527 -219.16621094 74.88143555 -218.25976562 74.60302734 C-217.28716797 74.32152832 -216.31457031 74.0400293 -215.3125 73.75 C-214.29736328 73.44916504 -213.28222656 73.14833008 -212.23632812 72.83837891 C-191.44847273 66.82265106 -170.15727152 62.5012111 -149 58 C-148.64808594 56.77925781 -148.29617187 55.55851562 -147.93359375 54.30078125 C-140.19101187 28.17089865 -125.48979612 7.47467283 -101.75 -6.6875 C-68.81852987 -23.8976173 -30.08380904 -22.04682064 0 0 Z " fill="#151A23" transform="translate(226,80)"/>
<path d="M0 0 C7.42572283 3.71286142 7.42572283 3.71286142 9 6 C9.70683638 10.34080692 9.55555081 14.73310884 9.5625 19.125 C9.61760742 20.92324219 9.61760742 20.92324219 9.67382812 22.7578125 C9.71384742 30.86838991 8.37252543 35.84518616 3 42 C3.61875 42.28875 4.2375 42.5775 4.875 42.875 C7 44 7 44 9 46 C9.42470739 50.14892724 9.3715872 54.30495728 9.37060547 58.47387695 C9.37493368 60.53098183 9.41110846 62.58585972 9.44921875 64.64257812 C9.47176669 72.3126341 9.01788203 78.35171418 5 85 C6.11375 84.6803125 7.2275 84.360625 8.375 84.03125 C14.0702656 82.6074336 19.73733536 82.58403833 25.578125 82.43359375 C33.4431488 82.15614659 42.54040168 81.38728051 48.4453125 75.578125 C53.55150365 69.6841215 53.26986796 64.55114521 53.375 57.125 C53.41238281 56.13113281 53.44976562 55.13726562 53.48828125 54.11328125 C53.59259996 48.03721117 53.59259996 48.03721117 50.6015625 42.8671875 C48.17459753 41.02138074 48.17459753 41.02138074 46 40 C47.66751148 36.05860922 50.22710649 33.2107188 53 30 C55 33 55 33 55 35 C55.99 35.33 56.98 35.66 58 36 C59.04892238 37.63631892 60.04906703 39.30485863 61 41 C61.66 41.66 62.32 42.32 63 43 C63.19975957 45.60629705 63.27983535 48.10397485 63.265625 50.7109375 C63.26753845 51.47548248 63.2694519 52.24002747 63.27142334 53.02774048 C63.2727854 54.6467522 63.2690875 56.26577484 63.26074219 57.88476562 C63.25007193 60.35832433 63.26062125 62.8311519 63.2734375 65.3046875 C63.27211533 66.87760577 63.26955176 68.45052358 63.265625 70.0234375 C63.26967346 70.76210052 63.27372192 71.50076355 63.27789307 72.2618103 C63.24397169 75.99581675 63.07655888 78.82948434 61 82 C62.07894531 81.98839844 63.15789062 81.97679687 64.26953125 81.96484375 C72.61011641 81.90376466 80.91923131 82.00559492 89.25 82.4375 C90.03479736 82.47673584 90.81959473 82.51597168 91.62817383 82.55639648 C95.81603856 82.79184242 99.87031789 83.2174647 104 84 C104 83.01 104 82.02 104 81 C105.98 80.34 107.96 79.68 110 79 C110.625 80.8125 110.625 80.8125 111 83 C110.34 83.99 109.68 84.98 109 86 C109.95567871 85.94561768 109.95567871 85.94561768 110.93066406 85.89013672 C121.09114816 85.5838872 130.7886446 87.35976945 140.75 89.125 C141.65574768 89.28306122 142.56149536 89.44112244 143.49468994 89.60397339 C184.46600194 96.77456377 184.46600194 96.77456377 197 105 C197 96.75 197 88.5 197 80 C194.69 81.32 192.38 82.64 190 84 C183.42625293 84.89286887 176.86170546 81.6310369 171 79 C171.61561145 74.40929746 173.5099043 70.67901544 175.625 66.625 C176.36092716 65.18308281 177.09527069 63.74035639 177.828125 62.296875 C178.19615234 61.57306641 178.56417969 60.84925781 178.94335938 60.10351562 C180.47638853 57.05162579 181.93063896 53.97005936 183.375 50.875 C183.64876465 50.28912109 183.9225293 49.70324219 184.20458984 49.09960938 C186.03562676 45.15456649 187.80398248 41.18446303 189.5546875 37.203125 C190.00021973 36.19910645 190.44575195 35.19508789 190.90478516 34.16064453 C191.79116392 32.16042067 192.66867787 30.15624137 193.53662109 28.14794922 C193.94219238 27.2354541 194.34776367 26.32295898 194.765625 25.3828125 C195.12430664 24.56184082 195.48298828 23.74086914 195.85253906 22.89501953 C197 21 197 21 200 20 C200 19.01 200 18.02 200 17 C199.401875 16.938125 198.80375 16.87625 198.1875 16.8125 C196 16 196 16 194.125 13.6875 C193.75375 12.800625 193.3825 11.91375 193 11 C193.9296875 8.83203125 193.9296875 8.83203125 195 7 C196.19625 7.268125 197.3925 7.53625 198.625 7.8125 C205.07498936 9.24697763 211.53792955 10.62117985 218 12 C218 13.32 218 14.64 218 16 C217.154375 16.515625 216.30875 17.03125 215.4375 17.5625 C205.88216045 23.42590897 201.60209674 37.99315479 197.25 47.875 C196.26075446 50.10478941 195.26899873 52.33340964 194.27386475 54.56057739 C193.66116916 55.93343859 193.05208762 57.30792073 192.44732666 58.68429565 C190.84885369 62.28344139 189.10558197 65.67133432 187 69 C191.33261437 69.15473623 195.00722524 69.12390179 199.1875 67.9375 C203 67 203 67 208 68 C207.67 85.49 207.34 102.98 207 121 C203.1526731 119.7175577 199.42518707 118.39402717 195.66447449 116.90667725 C186.50154732 113.3207337 177.2748632 110.89839269 167.6875 108.75 C166.21527742 108.40979348 164.74327124 108.0686491 163.27148438 107.7265625 C152.70200889 105.28774896 142.17206693 103.11909158 131.375 102 C125.46691877 101.35061614 119.77061727 100.4688844 114 99 C113.62875 99.87011719 113.62875 99.87011719 113.25 100.7578125 C108.26290782 109.7034091 96.54805428 116.21515083 87 119 C85.49819664 119.64162868 83.99842482 120.28802041 82.5 120.9375 C59.53580119 130.12317952 36.51450049 127.56794316 14 119 C13.18402344 118.70480469 12.36804688 118.40960938 11.52734375 118.10546875 C3.66490971 114.98047228 -10.17954522 107.64090956 -14 100 C-43.25754153 103.11910465 -74.07856612 108.53428848 -100.49609375 121.99609375 C-103 123 -103 123 -106 122 C-105.98120789 121.16270859 -105.98120789 121.16270859 -105.96203613 120.3085022 C-105.27617511 89.53457109 -104.83880021 58.78171959 -105 28 C-105.60231445 27.71463379 -106.20462891 27.42926758 -106.82519531 27.13525391 C-109.79918735 25.58282205 -112.17584811 23.52012657 -114.75 21.375 C-115.73484375 20.55773437 -116.7196875 19.74046875 -117.734375 18.8984375 C-118.48203125 18.27195313 -119.2296875 17.64546875 -120 17 C-119.505 15.515 -119.505 15.515 -119 14 C-116.85449219 13.0168457 -116.85449219 13.0168457 -114.046875 12.17578125 C-113.03496094 11.86962891 -112.02304688 11.56347656 -110.98046875 11.24804688 C-109.91441406 10.93931641 -108.84835938 10.63058594 -107.75 10.3125 C-106.69941406 9.99216797 -105.64882812 9.67183594 -104.56640625 9.34179688 C-99.90459487 7.95625217 -95.8980949 6.7976681 -91 7 C-91.33 7.99 -91.66 8.98 -92 10 C-93.65 10 -95.3 10 -97 10 C-97.33 12.64 -97.66 15.28 -98 18 C-98.66 18 -99.32 18 -100 18 C-100 18.99 -100 19.98 -100 21 C-99.360625 21.309375 -98.72125 21.61875 -98.0625 21.9375 C-96 23 -96 23 -95 24 C-94.90493948 26.55589888 -94.87443239 29.08467972 -94.88647461 31.64086914 C-94.88632858 32.44080795 -94.88618256 33.24074677 -94.8860321 34.06492615 C-94.88673145 36.72169665 -94.89452482 39.37839793 -94.90234375 42.03515625 C-94.90420785 43.87218691 -94.90563179 45.70921806 -94.90663147 47.54624939 C-94.91045725 52.39109662 -94.92028804 57.23591408 -94.93133545 62.08074951 C-94.94154828 67.02062578 -94.94612881 71.96050685 -94.95117188 76.90039062 C-94.96191026 86.60027563 -94.97950754 96.30013069 -95 106 C-90.38 104.02 -85.76 102.04 -81 100 C-80.67 88.78 -80.34 77.56 -80 66 C-76 67 -76 67 -74.56787109 68.99365234 C-74.14070801 69.84910645 -73.71354492 70.70456055 -73.2734375 71.5859375 C-72.7990625 72.51664062 -72.3246875 73.44734375 -71.8359375 74.40625 C-71.35382813 75.3859375 -70.87171875 76.365625 -70.375 77.375 C-69.40480795 79.30006529 -68.4335008 81.22456911 -67.4609375 83.1484375 C-67.03603027 84.00614746 -66.61112305 84.86385742 -66.17333984 85.74755859 C-64.95717393 88.18075338 -64.95717393 88.18075338 -63 91 C-63 91.99 -63 92.98 -63 94 C-54.4244375 93.18430194 -46.05017119 92.17307892 -37.6875 90.0625 C-31.35030303 88.47522834 -25.02116061 87.2384905 -18.5625 86.25 C-17.7583667 86.12246338 -16.9542334 85.99492676 -16.12573242 85.86352539 C-10.39004002 85.02221179 -4.79201117 84.86251325 1 85 C0.76228882 84.13713379 0.76228882 84.13713379 0.51977539 83.25683594 C0.02086674 81.09060223 -0.19888324 79.10677317 -0.31640625 76.890625 C-0.35830078 76.13652344 -0.40019531 75.38242188 -0.44335938 74.60546875 C-0.48267578 73.82816406 -0.52199219 73.05085938 -0.5625 72.25 C-0.60568359 71.45722656 -0.64886719 70.66445312 -0.69335938 69.84765625 C-0.79902991 67.89862185 -0.89997966 65.94933252 -1 64 C-1.69222656 64.79792969 -2.38445312 65.59585938 -3.09765625 66.41796875 C-6.40236152 69.35795554 -8.1086784 69.80772575 -12.4375 70.3125 C-13.52933594 70.45300781 -14.62117188 70.59351563 -15.74609375 70.73828125 C-18.82202899 70.9856854 -21.91413118 71 -25 71 C-25 64.73 -25 58.46 -25 52 C-21.50953395 50.83651132 -18.67722983 50.83165224 -15 50.8125 C-13.7625 50.79832031 -12.525 50.78414062 -11.25 50.76953125 C-8 51 -8 51 -5 53 C-5.33 52.01 -5.66 51.02 -6 50 C-6.0806622 48.51876453 -6.10761193 47.03417796 -6.09765625 45.55078125 C-6.09282227 44.27944336 -6.09282227 44.27944336 -6.08789062 42.98242188 C-6.07532227 41.66081055 -6.07532227 41.66081055 -6.0625 40.3125 C-6.05798828 39.41982422 -6.05347656 38.52714844 -6.04882812 37.60742188 C-6.03704983 35.40488013 -6.02060164 33.20247401 -6 31 C-6.66 31 -7.32 31 -8 31 C-8.2784375 31.928125 -8.2784375 31.928125 -8.5625 32.875 C-10.78344031 36.15812915 -13.18886405 36.26236078 -17 37 C-19.64 37 -22.28 37 -25 37 C-25 31.06 -25 25.12 -25 19 C-6.69811321 15.98113208 -6.69811321 15.98113208 0 20 C0 13.4 0 6.8 0 0 Z " fill="#111720" transform="translate(120,143)"/>
<path d="M0 0 C6.93 0.33 13.86 0.66 21 1 C19 5 19 5 18 6 C17.87630675 7.9935143 17.8220361 9.9913647 17.79467773 11.98852539 C17.77473251 13.26977798 17.75478729 14.55103058 17.73423767 15.87110901 C17.71725203 17.27995684 17.70037327 18.68880595 17.68359375 20.09765625 C17.66303085 21.53112905 17.64203456 22.96459569 17.62062073 24.39805603 C17.56533141 28.1775312 17.51595255 31.9570617 17.46777344 35.7366333 C17.41760835 39.59074855 17.36189629 43.44478309 17.30664062 47.29882812 C17.19897521 54.86581714 17.09754903 62.4328731 17 70 C19.73083902 70.13548815 22.45491807 70.23429855 25.1875 70.3125 C25.95642578 70.35439453 26.72535156 70.39628906 27.51757812 70.43945312 C31.93229913 70.53418963 33.44133154 70.48109634 36.92578125 67.48046875 C37.95251953 66.25263672 37.95251953 66.25263672 39 65 C39.66 65 40.32 65 41 65 C41 71.6 41 78.2 41 85 C43.82102849 80.12038315 46.32599181 75.46793857 48.19140625 70.15625 C49.51621756 66.62341984 51.15515046 63.2354855 52.73828125 59.8125 C53.95088518 57.10948195 55.05258047 54.38617212 56.125 51.625 C57.47902068 48.16953924 59.08999679 45.18333869 61 42 C63.2756739 36.76683552 65.28141657 31.44218086 67 26 C60.54364892 24.00612687 54.78175253 22.39448638 48 23 C47.01 23.66 46.02 24.32 45 25 C45 19.06 45 13.12 45 7 C52.52677927 7.54939995 59.60575965 8.61582422 66.9375 10.375 C67.89027832 10.59760498 68.84305664 10.82020996 69.82470703 11.04956055 C76.56609191 12.63242532 83.29714014 14.26065029 90 16 C85.34342975 28.03355786 79.72084975 39.74161451 73.89575195 51.24658203 C71.5588444 55.866283 69.27764272 60.50808292 67.0625 65.1875 C66.49660156 66.37730469 65.93070312 67.56710938 65.34765625 68.79296875 C64.1746244 71.58444455 63.44350694 74.01895965 63 77 C72.95704034 80.48870737 78.11174682 81.95530127 88 78 C88 86.25 88 94.5 88 103 C83 101 83 101 80.72631836 100.03076172 C74.45101568 97.39512141 68.19624209 95.61494539 61.5625 94.125 C60.4679248 93.87596924 59.37334961 93.62693848 58.24560547 93.37036133 C48.42107917 91.19853097 38.53858031 89.39888928 28.625 87.6875 C27.5139238 87.49404999 27.5139238 87.49404999 26.38040161 87.29669189 C17.611191 85.78023841 8.89346546 84.54160971 0 84 C0.32466248 83.32739639 0.64932495 82.65479279 0.98382568 81.96180725 C2.2172039 78.36692351 2.25416878 75.4125716 2.25878906 71.61108398 C2.2622937 70.88526123 2.26579834 70.15943848 2.26940918 69.41162109 C2.2781801 67.02301343 2.27239448 64.63470419 2.265625 62.24609375 C2.26697284 60.58130334 2.26891437 58.91651331 2.27142334 57.25172424 C2.27436819 53.76746869 2.270097 50.28331586 2.26074219 46.79907227 C2.24933913 42.33457243 2.25591652 37.87031285 2.26788712 33.4058218 C2.27511542 29.97001842 2.27281348 26.53427197 2.26763153 23.09846687 C2.26629818 21.45224034 2.26793174 19.80600862 2.27259064 18.15978813 C2.27767281 15.85955996 2.26992246 13.55972071 2.25878906 11.25952148 C2.25719788 9.95111801 2.25560669 8.64271454 2.25396729 7.29466248 C2.18901273 3.74944495 2.18901273 3.74944495 0 0 Z " fill="#CFD6D5" transform="translate(229,145)"/>
<path d="M0 0 C0 0.66 0 1.32 0 2 C0.721875 2.061875 1.44375 2.12375 2.1875 2.1875 C6.93205578 3.55814945 9.33669536 7.00504304 12 11 C13.21830168 18.65814759 13.7149746 28.29206241 10.43359375 35.38671875 C8.74315524 37.50745069 7.1110667 39.30360712 5 41 C5.763125 41.2475 6.52625 41.495 7.3125 41.75 C10.35266402 43.16402978 11.27549357 44.16836478 13 47 C13.61255365 50.58168075 13.46363886 54.18395126 13.4375 57.8125 C13.45748047 58.78509766 13.47746094 59.75769531 13.49804688 60.75976562 C13.4931943 67.92701179 12.34100085 72.26594023 7.47265625 77.70703125 C-0.32919534 83.82316421 -8.31753628 84.11656535 -17.875 84.5 C-23.97257787 84.74682849 -29.95338292 85.15824356 -36 86 C-35.5153125 84.83082031 -35.030625 83.66164063 -34.53125 82.45703125 C-32.48431079 76.2932821 -32.47717019 70.17087694 -32.49902344 63.72338867 C-32.50000699 61.67293454 -32.45803661 59.62609842 -32.4140625 57.57617188 C-32.41019531 55.62614258 -32.41019531 55.62614258 -32.40625 53.63671875 C-32.39561523 51.86880981 -32.39561523 51.86880981 -32.38476562 50.06518555 C-32.73745445 46.78687995 -32.73745445 46.78687995 -35.53710938 44.58520508 C-36.34986328 44.0620874 -37.16261719 43.53896973 -38 43 C-36.93468548 40.78742368 -35.84499356 38.7734427 -34.45507812 36.74194336 C-31.78621438 31.71274727 -32.48819751 26.14212597 -32.5 20.5625 C-32.47164062 19.34755859 -32.44328125 18.13261719 -32.4140625 16.88085938 C-32.23782421 9.49037858 -32.23782421 9.49037858 -35.53125 3.15234375 C-36.3459375 2.44207031 -37.160625 1.73179687 -38 1 C-25.31595119 0.20458373 -12.70832863 -0.12807946 0 0 Z " fill="#F6F7F1" transform="translate(161,142)"/>
<path d="M0 0 C5.30456814 -0.29579376 8.84403387 -0.30110176 13.02734375 3.19921875 C18.33171717 8.54231023 17.09838511 14.79070578 17.15234375 21.94921875 C17.18134766 23.20863281 17.21035156 24.46804687 17.24023438 25.765625 C17.2903737 33.11682093 16.90318917 38.12029394 12.83984375 44.32421875 C9.65234375 47.32421875 9.65234375 47.32421875 6.83984375 47.32421875 C9.26943363 55.5558143 13.12056179 62.7424198 17.39794922 70.12841797 C17.8260791 70.87236816 18.25420898 71.61631836 18.6953125 72.3828125 C19.08356201 73.04595459 19.47181152 73.70909668 19.87182617 74.39233398 C20.85720545 76.35886771 21.39173666 78.17695177 21.83984375 80.32421875 C16.00184783 82.02254484 10.90877004 82.57709068 4.83984375 82.32421875 C4.20369141 81.03451172 4.20369141 81.03451172 3.5546875 79.71875 C1.66593992 75.91219719 -0.24041841 72.1152115 -2.16015625 68.32421875 C-2.48032715 67.68967773 -2.80049805 67.05513672 -3.13037109 66.40136719 C-4.04568075 64.59904184 -4.97762783 62.80519559 -5.91015625 61.01171875 C-6.461875 59.94308594 -7.01359375 58.87445313 -7.58203125 57.7734375 C-8.98494169 55.03473845 -8.98494169 55.03473845 -12.16015625 54.32421875 C-12.13397217 55.33846924 -12.10778809 56.35271973 -12.08081055 57.39770508 C-11.99032106 61.16017604 -11.93291313 64.92255092 -11.88549805 68.68579102 C-11.86035057 70.31453625 -11.82622747 71.9431686 -11.78295898 73.5715332 C-11.72231075 75.91255509 -11.69395149 78.25208606 -11.671875 80.59375 C-11.64606857 81.32197464 -11.62026215 82.05019928 -11.59367371 82.80049133 C-11.5925293 84.86254883 -11.5925293 84.86254883 -12.16015625 88.32421875 C-16.03932403 91.97973176 -22.10024739 92.93888448 -27.16015625 94.32421875 C-27.16602249 93.30357834 -27.17188873 92.28293793 -27.17793274 91.23136902 C-27.23509433 81.62250551 -27.30782129 72.01386974 -27.39587116 62.40523815 C-27.44063836 57.46508089 -27.47988036 52.5250073 -27.5065918 47.5847168 C-27.53256159 42.81889651 -27.57291875 38.05339716 -27.62334251 33.28777504 C-27.64005415 31.46771543 -27.6515416 29.64760026 -27.65777016 27.82747459 C-27.66736475 25.28201866 -27.69536715 22.73739181 -27.7277832 20.19213867 C-27.72634811 19.43616394 -27.72491302 18.68018921 -27.72343445 17.90130615 C-27.74557043 13.8638141 -27.74557043 13.8638141 -29.68717957 10.45747375 C-30.17326187 10.0834996 -30.65934418 9.70952545 -31.16015625 9.32421875 C-31.16015625 8.66421875 -31.16015625 8.00421875 -31.16015625 7.32421875 C-20.80883192 3.88253477 -10.89329324 1.1176061 0 0 Z " fill="#F1F2EC" transform="translate(52.16015625,154.67578125)"/>
<path d="M0 0 C-0.99 0.33 -1.98 0.66 -3 1 C-3 1.66 -3 2.32 -3 3 C-5.475 3.99 -5.475 3.99 -8 5 C-8.33 4.67 -8.66 4.34 -9 4 C-14.57541545 3.62200573 -18.18250515 3.82750339 -23 7 C-23.495 8.485 -23.495 8.485 -24 10 C-24.65742188 10.30550781 -25.31484375 10.61101562 -25.9921875 10.92578125 C-28.16359858 11.80917633 -28.16359858 11.80917633 -28.7578125 13.91796875 C-28.87898438 14.66691406 -29.00015625 15.41585937 -29.125 16.1875 C-29.83176654 20.30549689 -30.82365791 23.88280269 -32 28 C-37.61 28 -43.22 28 -49 28 C-49 16.78 -49 5.56 -49 -6 C-51.31 -6 -53.62 -6 -56 -6 C-56 4.89 -56 15.78 -56 27 C-60.62 27 -65.24 27 -70 27 C-71.1577506 23.52674819 -71.06866652 20.63932552 -71 17 C-71.99 16.67 -72.98 16.34 -74 16 C-74.433125 15.236875 -74.86625 14.47375 -75.3125 13.6875 C-77.38912106 10.38028867 -79.68381816 9.00352653 -83 7 C-83.99 6.34 -84.98 5.68 -86 5 C-84.01432292 4.83723958 -82.02864583 4.67447917 -80.04296875 4.51171875 C-77.52516917 3.88106532 -76.81252492 2.82569096 -75 1 C-73.03446502 0.03088206 -71.02901565 -0.85948258 -69 -1.6875 C-67.948125 -2.12449219 -66.89625 -2.56148437 -65.8125 -3.01171875 C-63 -4 -63 -4 -60 -4 C-60 -4.66 -60 -5.32 -60 -6 C-62.95906404 -5.35737498 -65.91723516 -4.7110539 -68.875 -4.0625 C-69.71675781 -3.88009766 -70.55851562 -3.69769531 -71.42578125 -3.50976562 C-72.23144531 -3.33251953 -73.03710938 -3.15527344 -73.8671875 -2.97265625 C-74.98262939 -2.72914429 -74.98262939 -2.72914429 -76.12060547 -2.48071289 C-78.07187124 -2.05224081 -78.07187124 -2.05224081 -80 -1 C-82.3329866 -0.95977609 -84.66706666 -0.95679753 -87 -1 C-87.33 0.32 -87.66 1.64 -88 3 C-89.093125 3.268125 -90.18625 3.53625 -91.3125 3.8125 C-94.93102471 4.97778762 -95.6015691 5.40169986 -98 8 C-99.69977574 8.94795185 -101.39973479 9.8955807 -103.1015625 10.83984375 C-107.61349667 13.59713685 -111.38036991 17.09281769 -114.625 21.25 C-117.12397853 24.14355408 -118.56362296 24.64353538 -122 26 C-123.05104383 27.63495707 -124.05988318 29.29883624 -125 31 C-125.66 31 -126.32 31 -127 31 C-127.33 32.32 -127.66 33.64 -128 35 C-129.32 35 -130.64 35 -132 35 C-132.495 33.515 -132.495 33.515 -133 32 C-133.66 31.67 -134.32 31.34 -135 31 C-117.72498228 7.27564233 -97.54164931 -9.89797217 -67.9453125 -15.52734375 C-44.51869694 -18.33389868 -19.17183319 -14.65164488 0 0 Z " fill="#131A23" transform="translate(223,78)"/>
<path d="M0 0 C0 0.66 0 1.32 0 2 C-2.4566947 3.00419637 -4.91518353 4.00350501 -7.375 5 C-8.42300781 5.42925781 -8.42300781 5.42925781 -9.4921875 5.8671875 C-14.7734375 8 -14.7734375 8 -17 8 C-17.33 8.99 -17.66 9.98 -18 11 C-19.65 11.33 -21.3 11.66 -23 12 C-22.36191406 12.47050781 -21.72382813 12.94101563 -21.06640625 13.42578125 C-20.24011719 14.04839844 -19.41382813 14.67101562 -18.5625 15.3125 C-17.73878906 15.92738281 -16.91507813 16.54226562 -16.06640625 17.17578125 C-14 19 -14 19 -13 22 C-12.34 22.33 -11.68 22.66 -11 23 C-10.39892255 26.31726705 -10.25566515 29.63374215 -10 33 C-5.38 33 -0.76 33 4 33 C4 22.11 4 11.22 4 0 C6.31 0 8.62 0 11 0 C11 11.22 11 22.44 11 34 C16.61 34 22.22 34 28 34 C28.20625 32.68 28.4125 31.36 28.625 30 C30.42418923 21.9854298 36.19060674 15.45761636 43 11 C46.1875 9.9375 46.1875 9.9375 49 10 C51.375 11.4375 51.375 11.4375 53 13 C52 16 52 16 50.109375 16.95703125 C49.33078125 17.23933594 48.5521875 17.52164063 47.75 17.8125 C42.19740121 20.11651953 39.89992528 23.01440312 36.6875 28.0625 C35.84140109 30.44696056 35.95459161 32.48602614 36 35 C36.84594727 35.15819214 36.84594727 35.15819214 37.70898438 35.31958008 C40.30744147 35.80984998 42.90366824 36.31110166 45.5 36.8125 C46.386875 36.97814453 47.27375 37.14378906 48.1875 37.31445312 C63.09065627 40.21837696 80.59902825 47.5305198 90 60 C90.28515625 63.3046875 90.28515625 63.3046875 90 66 C86.71928301 64.53777998 84.32904172 62.66123248 81.625 60.3125 C68.23822446 49.52490862 51.67501629 44.91151078 35 42 C36.51916452 48.46795804 38.02467512 53.65387344 42 59 C42 59.66 42 60.32 42 61 C38.8125 61.5 38.8125 61.5 35 61 C32.76312436 58.61824899 31.40517198 55.93110092 30 53 C29.566875 52.154375 29.13375 51.30875 28.6875 50.4375 C28 48 28 48 28 41 C22.39 40.67 16.78 40.34 11 40 C11 46.93 11 53.86 11 61 C9.02 61 7.04 61 5 61 C5 54.07 5 47.14 5 40 C-3.415 40.495 -3.415 40.495 -12 41 C-12.04125 42.44375 -12.0825 43.8875 -12.125 45.375 C-12.74780636 51.43006179 -14.78995914 56.52916015 -19 61 C-22.875 61.625 -22.875 61.625 -26 61 C-25.01881096 59.024481 -24.02968058 57.05623079 -23 55.10546875 C-22.67 54.47253906 -22.34 53.83960938 -22 53.1875 C-21.505 52.24970703 -21.505 52.24970703 -21 51.29296875 C-19.68349362 48.27426076 -18.85797574 45.17527628 -18 42 C-38.29562112 45.05552191 -57.00144095 50.6148921 -73 64 C-74.485 64.99 -74.485 64.99 -76 66 C-75.77498571 61.58153765 -75.06326707 58.18974441 -72.0625 54.83203125 C-65.94739382 49.76550898 -59.21831466 46.23280135 -52 43 C-50.80117187 42.42958984 -50.80117187 42.42958984 -49.578125 41.84765625 C-44.47274697 39.57764756 -39.3369889 38.30547201 -33.875 37.25 C-33.21790039 37.12214111 -32.56080078 36.99428223 -31.88378906 36.86254883 C-27.17969127 36.02740103 -22.75408663 35.89411834 -18 36 C-19.85540396 28.82251627 -22.54807312 22.97103644 -28.87890625 18.74609375 C-32.21497424 17.57263337 -34.94888667 18.56413754 -38.1472168 19.89038086 C-44.36566155 23.23402446 -48.9567824 27.47992049 -53.8125 32.5625 C-54.54919922 33.31724609 -55.28589844 34.07199219 -56.04492188 34.84960938 C-57.41077157 36.2500063 -58.77243219 37.65451233 -60.12817383 39.06469727 C-62.06356669 41.06572234 -64.02663651 43.03647463 -66 45 C-64.03511505 31.95407783 -50.9275769 21.42371901 -41 14 C-39.33608978 12.9954202 -37.66992654 11.99454669 -36 11 C-35.34 10.34 -34.68 9.68 -34 9 C-30.875 8.875 -30.875 8.875 -28 9 C-28 7.35 -28 5.7 -28 4 C-26.96875 4.0825 -25.9375 4.165 -24.875 4.25 C-19.42068879 4.28895937 -14.51612942 2.52633104 -9.3671875 0.875 C-6.08220518 0.0213619 -3.37465743 -0.16411708 0 0 Z " fill="#C03835" transform="translate(163,72)"/>
<path d="M0 0 C14.36868975 -0.13222721 28.65164322 0.22961843 43 1 C43 6.94 43 12.88 43 19 C40.525 18.01 40.525 18.01 38 17 C35.29043769 16.73317001 32.65151697 16.5394933 29.9375 16.4375 C25.81692968 16.26095779 22.03036009 16.00759002 18 15 C18 21.27 18 27.54 18 34 C20.371875 33.87625 22.74375 33.7525 25.1875 33.625 C26.29387817 33.57400146 26.29387817 33.57400146 27.42260742 33.52197266 C31.56381932 33.27478621 34.02709354 32.58916258 38 31 C38 37.6 38 44.2 38 51 C36.68 50.34 35.36 49.68 34 49 C31.21957914 48.70409176 28.53516968 48.49352981 25.75 48.375 C23.1925 48.25125 20.635 48.1275 18 48 C18 54.6 18 61.2 18 68 C21.17625 67.9175 24.3525 67.835 27.625 67.75 C29.1092749 67.72631348 29.1092749 67.72631348 30.62353516 67.70214844 C31.42065918 67.6715332 32.2177832 67.64091797 33.0390625 67.609375 C33.84553223 67.58842773 34.65200195 67.56748047 35.48291016 67.54589844 C38.81737283 66.98338325 38.81737283 66.98338325 44 63 C44 70.26 44 77.52 44 85 C29.81 84.34 15.62 83.68 1 83 C1.33 81.68 1.66 80.36 2 79 C2.1298684 76.35605843 2.21160396 73.73871178 2.23828125 71.09375 C2.246353 70.33203491 2.25442474 69.57031982 2.26274109 68.78552246 C2.27653912 67.17848969 2.28728032 65.57142813 2.29516602 63.96435547 C2.30672262 62.32136448 2.32723226 60.67841208 2.35668945 59.03564453 C2.39929245 56.65892083 2.41552014 54.28330769 2.42578125 51.90625 C2.44328934 51.17386108 2.46079742 50.44147217 2.47883606 49.68688965 C2.46353476 46.09105847 2.27658059 44.34038638 -0.02661133 41.50585938 C-1.00343872 40.76045898 -1.00343872 40.76045898 -2 40 C-0.79618552 37.50638429 0.45428722 35.31856917 2 33 C2.66 33 3.32 33 4 33 C3.91904898 28.43677759 3.8062071 23.87488408 3.6875 19.3125 C3.66494141 18.01892578 3.64238281 16.72535156 3.61914062 15.39257812 C3.58369141 14.14541016 3.54824219 12.89824219 3.51171875 11.61328125 C3.48553467 10.46641846 3.45935059 9.31955566 3.43237305 8.13793945 C2.96356176 4.73555018 1.96000219 2.78598682 0 0 Z " fill="#F2F4ED" transform="translate(180,142)"/>
<path d="M0 0 C0 5.94 0 11.88 0 18 C-1.32 17.67 -2.64 17.34 -4 17 C-5.58898289 16.9849233 -7.17920851 17.02956972 -8.765625 17.12109375 C-9.65507813 17.16943359 -10.54453125 17.21777344 -11.4609375 17.26757812 C-12.38132812 17.32365234 -13.30171875 17.37972656 -14.25 17.4375 C-15.65378906 17.51581055 -15.65378906 17.51581055 -17.0859375 17.59570312 C-19.39093461 17.72506521 -21.69551494 17.86181593 -24 18 C-24 23.94 -24 29.88 -24 36 C-22.1025 35.71125 -20.205 35.4225 -18.25 35.125 C-16.64898437 34.88136719 -16.64898437 34.88136719 -15.015625 34.6328125 C-12.29943853 34.06283555 -10.33435076 33.47260445 -8 32 C-7.67 31.34 -7.34 30.68 -7 30 C-6.34 30 -5.68 30 -5 30 C-4.67 37.26 -4.34 44.52 -4 52 C-4.99 51.67 -5.98 51.34 -7 51 C-8.33525717 50.92026524 -9.67412083 50.89228662 -11.01171875 50.90234375 C-11.69451904 50.90484131 -12.37731934 50.90733887 -13.08081055 50.90991211 C-13.94101807 50.91901611 -14.80122559 50.92812012 -15.6875 50.9375 C-19.8021875 50.9684375 -19.8021875 50.9684375 -24 51 C-24 57.27 -24 63.54 -24 70 C-20.926875 69.525625 -17.85375 69.05125 -14.6875 68.5625 C-13.72287842 68.41498291 -12.75825684 68.26746582 -11.7644043 68.11547852 C-11.00039307 67.99615967 -10.23638184 67.87684082 -9.44921875 67.75390625 C-8.66893311 67.63345947 -7.88864746 67.5130127 -7.0847168 67.38891602 C-4.81720203 67.01511389 -4.81720203 67.01511389 -2 66 C-0.79117904 63.99983534 -0.79117904 63.99983534 0 62 C0.33 62 0.66 62 1 62 C1.33 69.26 1.66 76.52 2 84 C-2.03397613 84.55489755 -6.06818803 85.10733336 -10.10327148 85.65405273 C-11.46966668 85.83987736 -12.83588535 86.02700563 -14.2019043 86.21557617 C-23.11887592 87.44539021 -32.01436176 88.42563256 -41 89 C-40.67692871 88.16355957 -40.35385742 87.32711914 -40.02099609 86.46533203 C-38.34417568 80.77408647 -38.62808681 74.98125911 -38.62939453 69.09521484 C-38.62499784 66.87390762 -38.58855768 64.6545533 -38.55078125 62.43359375 C-38.54491636 61.01563175 -38.54094477 59.59766038 -38.5390625 58.1796875 C-38.53084473 56.89819824 -38.52262695 55.61670898 -38.51416016 54.29638672 C-39.07462581 50.4936695 -40.02931918 49.33783824 -43 47 C-41.87548273 44.0280615 -40.77706209 41.66559313 -39 39 C-38.72289637 35.89520051 -38.72289637 35.89520051 -38.8046875 32.36328125 C-38.81113281 31.06455078 -38.81757812 29.76582031 -38.82421875 28.42773438 C-38.8409294 27.05598693 -38.85785929 25.68424214 -38.875 24.3125 C-38.88503326 22.92904282 -38.89415851 21.54557873 -38.90234375 20.16210938 C-38.92595033 16.77456548 -38.95887963 13.38736928 -39 10 C-40.32 9.34 -41.64 8.68 -43 8 C-43 7.34 -43 6.68 -43 6 C-5.92576419 0 -5.92576419 0 0 0 Z " fill="#F7F8F0" transform="translate(119,144)"/>
<path d="M0 0 C0.22137393 2.62697064 0.28162025 5.00893964 0.1875 7.625 C0.16719727 8.68460938 0.16719727 8.68460938 0.14648438 9.765625 C0.1111104 11.51074128 0.05730221 13.25546608 0 15 C0.66 15 1.32 15 2 15 C2 12.69 2 10.38 2 8 C5.3 8 8.6 8 12 8 C12.495 11.465 12.495 11.465 13 15 C13.33 15 13.66 15 14 15 C13.88542699 21.41608855 12.41273091 24.66578678 7.96484375 29.3046875 C1.00672768 35.30831051 -8.14093061 35.149599 -16.875 35.5 C-22.97257787 35.74682849 -28.95338292 36.15824356 -35 37 C-34.01 34.03 -33.02 31.06 -32 28 C-31.34 28.66 -30.68 29.32 -30 30 C-29.97494385 29.30849854 -29.9498877 28.61699707 -29.92407227 27.90454102 C-29.80847839 24.79032134 -29.68558758 21.67643211 -29.5625 18.5625 C-29.52318359 17.47388672 -29.48386719 16.38527344 -29.44335938 15.26367188 C-29.40146484 14.22919922 -29.35957031 13.19472656 -29.31640625 12.12890625 C-29.27974854 11.17056885 -29.24309082 10.21223145 -29.20532227 9.22485352 C-29 7 -29 7 -28 6 C-24.99668982 5.85806663 -22.00782866 5.95763622 -19 6 C-19 10.95 -19 15.9 -19 21 C-12.565 20.505 -12.565 20.505 -6 20 C-9.63 19.67 -13.26 19.34 -17 19 C-17 12.4 -17 5.8 -17 -1 C-4.6 -3.06666667 -4.6 -3.06666667 0 0 Z " fill="#CFD7D6" transform="translate(160,191)"/>
<path d="M0 0 C7.52677927 0.54939995 14.60575965 1.61582422 21.9375 3.375 C23.36666748 3.70890747 23.36666748 3.70890747 24.82470703 4.04956055 C31.56609191 5.63242532 38.29714014 7.26065029 45 9 C43.12513299 13.84505107 41.00150384 18.57419249 38.875 23.3125 C38.48119141 24.190271 38.08738281 25.06804199 37.68164062 25.97241211 C34.7675608 32.41660823 31.69988662 38.7671086 28.47607422 45.06176758 C27.132501 47.69024118 25.93551774 50.19344678 25 53 C22.1085914 54.1194613 19.32237388 54.10768197 16.25 54.0625 C15.45078125 54.05347656 14.6515625 54.04445312 13.828125 54.03515625 C13.22484375 54.02355469 12.6215625 54.01195312 12 54 C12 53.34 12 52.68 12 52 C11.34 52 10.68 52 10 52 C10.36329754 46.42943769 12.07508142 42.53716476 14.6640625 37.62109375 C17.69694502 31.67061371 19.9907518 25.3626193 22 19 C15.54364892 17.00612687 9.78175253 15.39448638 3 16 C2.01 16.66 1.02 17.32 0 18 C0 12.06 0 6.12 0 0 Z " fill="#F6F7F2" transform="translate(274,152)"/>
<path d="M0 0 C0 0.66 0 1.32 0 2 C-2.4566947 3.00419637 -4.91518353 4.00350501 -7.375 5 C-8.42300781 5.42925781 -8.42300781 5.42925781 -9.4921875 5.8671875 C-14.7734375 8 -14.7734375 8 -17 8 C-17.33 8.99 -17.66 9.98 -18 11 C-19.65 11.33 -21.3 11.66 -23 12 C-22.36191406 12.47050781 -21.72382813 12.94101563 -21.06640625 13.42578125 C-20.24011719 14.04839844 -19.41382813 14.67101562 -18.5625 15.3125 C-17.73878906 15.92738281 -16.91507813 16.54226562 -16.06640625 17.17578125 C-14 19 -14 19 -13 22 C-12.34 22.33 -11.68 22.66 -11 23 C-10.39892255 26.31726705 -10.25566515 29.63374215 -10 33 C-5.38 33 -0.76 33 4 33 C4 22.11 4 11.22 4 0 C4.33 0 4.66 0 5 0 C5 11.22 5 22.44 5 34 C1.93466836 35.53266582 -1.26754272 35.10276471 -4.625 35.0625 C-5.33140625 35.05798828 -6.0378125 35.05347656 -6.765625 35.04882812 C-8.51045275 35.03703875 -10.255237 35.01910324 -12 35 C-12 33.68 -12 32.36 -12 31 C-12.99 31 -13.98 31 -15 31 C-15.185625 31.7734375 -15.185625 31.7734375 -15.375 32.5625 C-16.18639531 35.72694171 -17.09870665 38.86012844 -18 42 C-19.05316406 42.15855469 -20.10632813 42.31710938 -21.19140625 42.48046875 C-40.34548307 45.51362631 -57.9499326 51.40844251 -73 64 C-74.485 64.99 -74.485 64.99 -76 66 C-75.77498571 61.58153765 -75.06326707 58.18974441 -72.0625 54.83203125 C-65.94739382 49.76550898 -59.21831466 46.23280135 -52 43 C-50.80117187 42.42958984 -50.80117187 42.42958984 -49.578125 41.84765625 C-44.47274697 39.57764756 -39.3369889 38.30547201 -33.875 37.25 C-33.21790039 37.12214111 -32.56080078 36.99428223 -31.88378906 36.86254883 C-27.17969127 36.02740103 -22.75408663 35.89411834 -18 36 C-19.85540396 28.82251627 -22.54807312 22.97103644 -28.87890625 18.74609375 C-32.21497424 17.57263337 -34.94888667 18.56413754 -38.1472168 19.89038086 C-44.36566155 23.23402446 -48.9567824 27.47992049 -53.8125 32.5625 C-54.54919922 33.31724609 -55.28589844 34.07199219 -56.04492188 34.84960938 C-57.41077157 36.2500063 -58.77243219 37.65451233 -60.12817383 39.06469727 C-62.06356669 41.06572234 -64.02663651 43.03647463 -66 45 C-64.03511505 31.95407783 -50.9275769 21.42371901 -41 14 C-39.33608978 12.9954202 -37.66992654 11.99454669 -36 11 C-35.34 10.34 -34.68 9.68 -34 9 C-30.875 8.875 -30.875 8.875 -28 9 C-28 7.35 -28 5.7 -28 4 C-26.96875 4.0825 -25.9375 4.165 -24.875 4.25 C-19.42068879 4.28895937 -14.51612942 2.52633104 -9.3671875 0.875 C-6.08220518 0.0213619 -3.37465743 -0.16411708 0 0 Z " fill="#C13E46" transform="translate(163,72)"/>
<path d="M0 0 C6.93 0.33 13.86 0.66 21 1 C19 5 19 5 18 6 C17.87630675 7.9935143 17.8220361 9.9913647 17.79467773 11.98852539 C17.77473251 13.26977798 17.75478729 14.55103058 17.73423767 15.87110901 C17.71725203 17.27995684 17.70037327 18.68880595 17.68359375 20.09765625 C17.66303085 21.53112905 17.64203456 22.96459569 17.62062073 24.39805603 C17.56533141 28.1775312 17.51595255 31.9570617 17.46777344 35.7366333 C17.41760835 39.59074855 17.36189629 43.44478309 17.30664062 47.29882812 C17.19897521 54.86581714 17.09754903 62.4328731 17 70 C19.73083902 70.13548815 22.45491807 70.23429855 25.1875 70.3125 C25.95642578 70.35439453 26.72535156 70.39628906 27.51757812 70.43945312 C31.93229913 70.53418963 33.44133154 70.48109634 36.92578125 67.48046875 C37.95251953 66.25263672 37.95251953 66.25263672 39 65 C39.66 65 40.32 65 41 65 C40.67 72.26 40.34 79.52 40 87 C39.01 86.505 39.01 86.505 38 86 C37.5859375 83.05859375 37.5859375 83.05859375 37.375 79.4375 C37.30023438 78.23996094 37.22546875 77.04242188 37.1484375 75.80859375 C37.09945312 74.88175781 37.05046875 73.95492187 37 73 C36.01 73.33 35.02 73.66 34 74 C31.89303242 73.9381131 29.7877401 73.80425925 27.6875 73.625 C26.57761719 73.53476563 25.46773437 73.44453125 24.32421875 73.3515625 C21.20108084 73.02126589 18.09782446 72.51630408 15 72 C15 66.39 15 60.78 15 55 C12.03 55 9.06 55 6 55 C6 63.91 6 72.82 6 82 C5.01 82 4.02 82 3 82 C2.99191315 81.0316925 2.98382629 80.06338501 2.97549438 79.06573486 C2.89802864 69.94285438 2.81028823 60.82012295 2.71247292 51.69743729 C2.66251502 47.00730602 2.61618489 42.31719723 2.578125 37.62695312 C2.54126585 33.10108757 2.49490411 28.57541021 2.44193649 24.04970551 C2.42339591 22.3225713 2.40828669 20.59539676 2.39665604 18.86820221 C2.37978782 16.45002446 2.35075166 14.03227742 2.31884766 11.61425781 C2.31668747 10.89928131 2.31452728 10.18430481 2.31230164 9.44766235 C2.24573991 5.5016957 1.82470924 3.64941847 0 0 Z " fill="#F8F9F3" transform="translate(229,145)"/>
<path d="M0 0 C0.33 0 0.66 0 1 0 C1 6.27 1 12.54 1 19 C4.073125 18.525625 7.14625 18.05125 10.3125 17.5625 C11.27712158 17.41498291 12.24174316 17.26746582 13.2355957 17.11547852 C13.99960693 16.99615967 14.76361816 16.87684082 15.55078125 16.75390625 C16.33106689 16.63345947 17.11135254 16.5130127 17.9152832 16.38891602 C20.18279797 16.01511389 20.18279797 16.01511389 23 15 C24.20882096 12.99983534 24.20882096 12.99983534 25 11 C25.33 11 25.66 11 26 11 C26.33 18.26 26.66 25.52 27 33 C22.96602387 33.55489755 18.93181197 34.10733336 14.89672852 34.65405273 C13.53033332 34.83987736 12.16411465 35.02700563 10.7980957 35.21557617 C1.88112408 36.44539021 -7.01436176 37.42563256 -16 38 C-15.34 36.68 -14.68 35.36 -14 34 C-13.01 34 -12.02 34 -11 34 C-11 24.76 -11 15.52 -11 6 C-7.7 6 -4.4 6 -1 6 C-1 11.28 -1 16.56 -1 22 C5.6 21.01 12.2 20.02 19 19 C14.05 19.495 14.05 19.495 9 20 C6.03 20 3.06 20 0 20 C0 13.4 0 6.8 0 0 Z " fill="#D1D8D8" transform="translate(94,195)"/>
<path d="M0 0 C4.97303976 3.49637087 8.96082089 7.13736006 11 13 C11.03886212 14.66621353 11.0448771 16.33393763 11 18 C10.36723145 18.07927734 9.73446289 18.15855469 9.08251953 18.24023438 C-4.80152681 20.05829362 -16.70706871 22.82716059 -29.21533203 29.15380859 C-31.73543742 30.34870398 -34.33817034 31.17978505 -37 32 C-38.67163195 32.65411685 -40.34015202 33.31653318 -42 34 C-42.08090971 32.37581255 -42.13914995 30.75048255 -42.1875 29.125 C-42.22230469 28.22007813 -42.25710937 27.31515625 -42.29296875 26.3828125 C-42.19628906 25.59648438 -42.09960938 24.81015625 -42 24 C-41.01 23.34 -40.02 22.68 -39 22 C-38.67 21.01 -38.34 20.02 -38 19 C-37.34 19 -36.68 19 -36 19 C-35.71125 18.21625 -35.4225 17.4325 -35.125 16.625 C-34 14 -34 14 -32 12 C-31.01 12.33 -30.02 12.66 -29 13 C-29.433125 13.61488281 -29.86625 14.22976562 -30.3125 14.86328125 C-30.869375 15.67152344 -31.42625 16.47976562 -32 17.3125 C-32.556875 18.11300781 -33.11375 18.91351563 -33.6875 19.73828125 C-35.25095964 21.99663018 -35.25095964 21.99663018 -35 25 C-34.64550781 24.57332031 -34.29101562 24.14664063 -33.92578125 23.70703125 C-10.08407664 -4.29109644 -10.08407664 -4.29109644 0 0 Z " fill="#1E2028" transform="translate(134,90)"/>
<path d="M0 0 C1.98 0 3.96 0 6 0 C6.33 11.22 6.66 22.44 7 34 C8.32 34.33 9.64 34.66 11 35 C11 35.99 11 36.98 11 38 C12.98 38 14.96 38 17 38 C17 38.33 17 38.66 17 39 C13.37 39 9.74 39 6 39 C6 46.26 6 53.52 6 61 C4.02 61 2.04 61 0 61 C0 54.07 0 47.14 0 40 C-8.415 40.495 -8.415 40.495 -17 41 C-17.04125 42.44375 -17.0825 43.8875 -17.125 45.375 C-17.74780636 51.43006179 -19.78995914 56.52916015 -24 61 C-27.875 61.625 -27.875 61.625 -31 61 C-30.04746853 59.06091807 -29.08672416 57.14905716 -28 55.28125 C-25.16358691 50.22888918 -24.21904599 45.46023987 -23.4921875 39.734375 C-23.0179076 37.09948665 -22.21537329 35.35104997 -21 33 C-20.83275263 29.83304044 -20.83275263 29.83304044 -21 27 C-20.67 28.32 -20.34 29.64 -20 31 C-19.01 31 -18.02 31 -17 31 C-17 32.32 -17 33.64 -17 35 C-8.585 34.505 -8.585 34.505 0 34 C0 22.78 0 11.56 0 0 Z " fill="#D73C3E" transform="translate(168,72)"/>
<path d="M0 0 C3.3 0 6.6 0 10 0 C10 4.95 10 9.9 10 15 C13.79171347 15.02687041 17.58323823 15.04677587 21.375 15.0625 C22.99535156 15.07506836 22.99535156 15.07506836 24.6484375 15.08789062 C25.6796875 15.09111328 26.7109375 15.09433594 27.7734375 15.09765625 C29.20308838 15.10551147 29.20308838 15.10551147 30.66162109 15.11352539 C33.02324406 15.15642599 33.02324406 15.15642599 35 14 C35.495 18.95 35.495 18.95 36 24 C36.33 19.38 36.66 14.76 37 10 C37.33 10 37.66 10 38 10 C38 16.6 38 23.2 38 30 C23.81 29.34 9.62 28.68 -5 28 C-4.67 27.34 -4.34 26.68 -4 26 C-3.01 26 -2.02 26 -1 26 C-0.67 17.42 -0.34 8.84 0 0 Z " fill="#D2D9D8" transform="translate(186,197)"/>
<path d="M0 0 C0.33 0 0.66 0 1 0 C1 11.22 1 22.44 1 34 C-5.435 34.495 -5.435 34.495 -12 35 C-13.1577506 31.52674819 -13.06866652 28.63932552 -13 25 C-13.99 24.67 -14.98 24.34 -16 24 C-16.433125 23.236875 -16.86625 22.47375 -17.3125 21.6875 C-19.38912106 18.38028867 -21.68381816 17.00352653 -25 15 C-25.99 14.34 -26.98 13.68 -28 13 C-25.02148438 12.75585938 -25.02148438 12.75585938 -22.04296875 12.51171875 C-19.52516917 11.88106532 -18.81252492 10.82569096 -17 9 C-15.03446502 8.03088206 -13.02901565 7.14051742 -11 6.3125 C-9.948125 5.87550781 -8.89625 5.43851562 -7.8125 4.98828125 C-5 4 -5 4 -2 4 C-2 3.34 -2 2.68 -2 2 C-3.32 1.67 -4.64 1.34 -6 1 C-4.7934375 1.0309375 -4.7934375 1.0309375 -3.5625 1.0625 C-1.06645115 1.29633621 -1.06645115 1.29633621 0 0 Z " fill="#1B202A" transform="translate(165,70)"/>
<path d="M0 0 C0.33 0 0.66 0 1 0 C1.33 25.41 1.66 50.82 2 77 C2.33 68.09 2.66 59.18 3 50 C9 48 9 48 13 48 C12.67 56.91 12.34 65.82 12 75 C12.66 75.33 13.32 75.66 14 76 C12.04350603 76.83764268 10.08474444 77.66999059 8.125 78.5 C6.48917969 79.19609375 6.48917969 79.19609375 4.8203125 79.90625 C2 81 2 81 0 81 C0 54.27 0 27.54 0 0 Z " fill="#C5CAC8" transform="translate(25,168)"/>
<path d="M0 0 C3.2171256 3.2171256 2.36856294 7.06351524 2.375 11.4375 C2.39949219 12.30955078 2.42398438 13.18160156 2.44921875 14.08007812 C2.47875729 20.48501772 2.47875729 20.48501772 0.08984375 23.0546875 C-4.6779065 25.21131471 -7.35888994 25 -13 25 C-13 17.41 -13 9.82 -13 2 C-7.9108781 0.30362603 -5.16107193 -0.39700553 0 0 Z " fill="#13181F" transform="translate(53,169)"/>
<path d="M0 0 C2.47385671 2.47385671 2.28571102 3.97504228 2.32226562 7.36132812 C2.31904297 8.04646484 2.31582031 8.73160156 2.3125 9.4375 C2.32861328 10.11876953 2.34472656 10.80003906 2.36132812 11.50195312 C2.36407102 14.30245232 2.28598458 16.49090689 0.8984375 18.9609375 C-3.41055718 21.31935845 -9.29864331 20.13964426 -14 20 C-14 13.73 -14 7.46 -14 1 C-8.92493442 0.15415574 -5.04716816 -0.25235841 0 0 Z " fill="#161C25" transform="translate(157,189)"/>
<path d="M0 0 C1.8975 -0.061875 3.795 -0.12375 5.75 -0.1875 C7.35101563 -0.23970703 7.35101563 -0.23970703 8.984375 -0.29296875 C12.42946949 0.04172307 13.75533374 0.35890103 16 3 C16.49609375 6.25 16.49609375 6.25 16.4375 10 C16.43621094 11.2375 16.43492187 12.475 16.43359375 13.75 C16 17 16 17 14.890625 18.92578125 C10.62632027 21.34868167 4.68292776 20.13909686 0 20 C0 13.4 0 6.8 0 0 Z " fill="#20262E" transform="translate(143,156)"/>
<path d="M0 0 C0.66 0.33 1.32 0.66 2 1 C0 4 0 4 -1.8125 4.375 C-5.15220358 5.32920102 -6.78140933 7.41164421 -9 10 C-9 10.99 -9 11.98 -9 13 C-9.66 13.66 -10.32 14.32 -11 15 C-10.7525 15.721875 -10.505 16.44375 -10.25 17.1875 C-9.94701725 20.59605588 -10.51418177 21.1159448 -12.625 23.6875 C-15.23608839 26.50456752 -17.41091074 27.64196622 -21 29 C-22.05104383 30.63495707 -23.05988318 32.29883624 -24 34 C-24.66 34 -25.32 34 -26 34 C-26.33 35.32 -26.66 36.64 -27 38 C-28.32 38 -29.64 38 -31 38 C-31.495 36.515 -31.495 36.515 -32 35 C-32.66 34.67 -33.32 34.34 -34 34 C-14.53435115 7.26717557 -14.53435115 7.26717557 0 0 Z " fill="#0D141C" transform="translate(122,75)"/>
<path d="M0 0 C0 0.66 0 1.32 0 2 C-2.4566947 3.00419637 -4.91518353 4.00350501 -7.375 5 C-8.07367188 5.28617187 -8.77234375 5.57234375 -9.4921875 5.8671875 C-14.7734375 8 -14.7734375 8 -17 8 C-17.33 8.99 -17.66 9.98 -18 11 C-19.65 11.33 -21.3 11.66 -23 12 C-22.36191406 12.47050781 -21.72382813 12.94101563 -21.06640625 13.42578125 C-20.24011719 14.04839844 -19.41382813 14.67101562 -18.5625 15.3125 C-17.73878906 15.92738281 -16.91507813 16.54226562 -16.06640625 17.17578125 C-14 19 -14 19 -13 22 C-12.34 22.33 -11.68 22.66 -11 23 C-10.39892255 26.31726705 -10.25566515 29.63374215 -10 33 C-5.38 33 -0.76 33 4 33 C4 22.11 4 11.22 4 0 C4.33 0 4.66 0 5 0 C5 11.22 5 22.44 5 34 C1.93466836 35.53266582 -1.26754272 35.10276471 -4.625 35.0625 C-5.33140625 35.05798828 -6.0378125 35.05347656 -6.765625 35.04882812 C-8.51045275 35.03703875 -10.255237 35.01910324 -12 35 C-12.17015625 34.27554688 -12.3403125 33.55109375 -12.515625 32.8046875 C-14.82809099 23.57942423 -17.60266397 18.39468159 -25.73828125 13.2578125 C-28.40597682 11.7742236 -31.044071 10.75793051 -34 10 C-34 9.67 -34 9.34 -34 9 C-32.02 9 -30.04 9 -28 9 C-28 7.35 -28 5.7 -28 4 C-26.96875 4.0825 -25.9375 4.165 -24.875 4.25 C-19.42068879 4.28895937 -14.51612942 2.52633104 -9.3671875 0.875 C-6.08220518 0.0213619 -3.37465743 -0.16411708 0 0 Z " fill="#601C24" transform="translate(163,72)"/>
<path d="M0 0 C10.66916785 4.0944408 21.87503574 9.76181989 29 19 C29.29296875 22.30859375 29.29296875 22.30859375 29 25 C25.71928301 23.53777998 23.32904172 21.66123248 20.625 19.3125 C12.2037215 12.47098866 2.37419796 8.0407132 -8 5 C-4.2735915 3.95297814 -0.86986958 3.92557943 3 4 C2.01 2.68 1.02 1.36 0 0 Z " fill="#912827" transform="translate(224,113)"/>
<path d="M0 0 C0.99 0.33 1.98 0.66 3 1 C3.33 2.65 3.66 4.3 4 6 C6.64 6 9.28 6 12 6 C10.25 9.875 10.25 9.875 8 11 C8 13.97 8 16.94 8 20 C6.68 19.34 5.36 18.68 4 18 C1.14581781 18.348071 -1.26879341 19.0895978 -4 20 C-4.0825 18.741875 -4.165 17.48375 -4.25 16.1875 C-4.6225603 12.69859456 -4.6225603 12.69859456 -7.0625 10.1875 C-7.701875 9.795625 -8.34125 9.40375 -9 9 C-9 8.01 -9 7.02 -9 6 C-6.36 6 -3.72 6 -1 6 C-0.67 4.02 -0.34 2.04 0 0 Z " fill="#BA5560" transform="translate(169,235)"/>
<path d="M0 0 C-0.33 0.99 -0.66 1.98 -1 3 C-3.3359375 3.9921875 -3.3359375 3.9921875 -6.375 4.875 C-11.71416242 6.52714225 -16.67686563 8.55598766 -21.72265625 10.94921875 C-24 12 -24 12 -27 13 C-27.6711185 14.33109811 -28.33724912 15.66471595 -29 17 C-30.83984375 18.6328125 -30.83984375 18.6328125 -32.9375 20.125 C-33.62714844 20.62257812 -34.31679687 21.12015625 -35.02734375 21.6328125 C-36.6726313 22.7731108 -38.33439173 23.88959449 -40 25 C-39.77498571 20.58153765 -39.06326707 17.18974441 -36.0625 13.83203125 C-25.43101529 5.02357356 -13.9127099 0 0 0 Z " fill="#D53B33" transform="translate(127,113)"/>
<path d="M0 0 C1.23556641 0.01740234 1.23556641 0.01740234 2.49609375 0.03515625 C3.32238281 0.04417969 4.14867187 0.05320312 5 0.0625 C5.63808594 0.07410156 6.27617187 0.08570312 6.93359375 0.09765625 C6.9586499 1.05655762 6.98370605 2.01545898 7.00952148 3.00341797 C7.10357995 6.55564102 7.20380433 10.10766781 7.3059082 13.65966797 C7.34926301 15.19803278 7.3909377 16.73644588 7.4309082 18.27490234 C7.48859773 20.48419765 7.55229554 22.69324973 7.6171875 24.90234375 C7.63389999 25.59198212 7.65061249 26.28162048 7.66783142 26.99215698 C7.7416637 30.66879889 7.7416637 30.66879889 8.93359375 34.09765625 C9.79984375 33.91203125 10.66609375 33.72640625 11.55859375 33.53515625 C14.98512003 33.09097692 17.57571746 33.37811133 20.93359375 34.09765625 C20.93359375 31.78765625 20.93359375 29.47765625 20.93359375 27.09765625 C21.92359375 27.09765625 22.91359375 27.09765625 23.93359375 27.09765625 C23.27359375 30.06765625 22.61359375 33.03765625 21.93359375 36.09765625 C16.32359375 36.09765625 10.71359375 36.09765625 4.93359375 36.09765625 C4.93359375 24.87765625 4.93359375 13.65765625 4.93359375 2.09765625 C2.62359375 2.09765625 0.31359375 2.09765625 -2.06640625 2.09765625 C-2.06640625 12.98765625 -2.06640625 23.87765625 -2.06640625 35.09765625 C-5.69640625 35.09765625 -9.32640625 35.09765625 -13.06640625 35.09765625 C-13.06640625 34.76765625 -13.06640625 34.43765625 -13.06640625 34.09765625 C-9.76640625 34.09765625 -6.46640625 34.09765625 -3.06640625 34.09765625 C-3.07164307 33.1032251 -3.07687988 32.10879395 -3.08227539 31.08422852 C-3.10032666 27.40731704 -3.11183871 23.7304095 -3.12133789 20.0534668 C-3.12637782 18.45971011 -3.13320975 16.86595806 -3.1418457 15.2722168 C-3.15392624 12.98615372 -3.1596378 10.70015158 -3.1640625 8.4140625 C-3.16922379 7.69738907 -3.17438507 6.98071564 -3.17970276 6.24232483 C-3.17989888 4.52701953 -3.12832632 2.81184359 -3.06640625 1.09765625 C-2.06640625 0.09765625 -2.06640625 0.09765625 0 0 Z " fill="#33121D" transform="translate(169.06640625,69.90234375)"/>
<path d="M0 0 C0 0.99 0 1.98 0 3 C-1.8984375 4.82421875 -1.8984375 4.82421875 -4.375 6.6875 C-5.18710938 7.31011719 -5.99921875 7.93273437 -6.8359375 8.57421875 C-9 10 -9 10 -11 10 C-10.67 11.98 -10.34 13.96 -10 16 C-8.39125 16.433125 -8.39125 16.433125 -6.75 16.875 C-3 18 -3 18 -1.125 19.03125 C1.53545137 20.24410283 3.84102406 20.417216 6.75 20.625 C7.73484375 20.69976562 8.7196875 20.77453125 9.734375 20.8515625 C10.48203125 20.90054688 11.2296875 20.94953125 12 21 C12 21.66 12 22.32 12 23 C12.56589844 23.13535156 13.13179687 23.27070312 13.71484375 23.41015625 C16.02990342 24.00771866 18.28982042 24.69532207 20.5625 25.4375 C21.32691406 25.68371094 22.09132812 25.92992188 22.87890625 26.18359375 C25 27 25 27 28 29 C28 29.99 28 30.98 28 32 C24.33630097 30.96664899 21.32914349 29.62374594 18.125 27.625 C9.21451961 22.52254586 -2.02342086 20.99477492 -12.05859375 19.39453125 C-14 19 -14 19 -15 18 C-14.59164705 11.05799978 -12.09501354 6.71696157 -7 2.125 C-4 0 -4 0 0 0 Z " fill="#360F16" transform="translate(213,89)"/>
<path d="M0 0 C0.33 1.32 0.66 2.64 1 4 C0.38108887 4.33306152 -0.23782227 4.66612305 -0.87548828 5.00927734 C-7.52796767 8.76717611 -12.61628538 13.1176916 -17.875 18.625 C-18.6071875 19.37523438 -19.339375 20.12546875 -20.09375 20.8984375 C-21.44864378 22.28781949 -22.79934158 23.68131744 -24.14404297 25.08056641 C-26.07395684 27.07648628 -28.03194431 29.04174375 -30 31 C-28.16714854 18.8307188 -16.51875055 9.21074545 -7.6484375 1.6875 C-4.7614762 -0.15197977 -3.34938187 -0.3869322 0 0 Z " fill="#EAEEEF" transform="translate(127,86)"/>
<path d="M0 0 C1.98 0 3.96 0 6 0 C6 11.22 6 22.44 6 34 C3.43383368 30.15075052 3.44902324 27.5650696 3 23 C2.67 25.64 2.34 28.28 2 31 C1.34 31 0.68 31 0 31 C0 20.77 0 10.54 0 0 Z " fill="#BB3D46" transform="translate(168,72)"/>
<path d="M0 0 C1.423125 0.061875 2.84625 0.12375 4.3125 0.1875 C3.9825 3.1575 3.6525 6.1275 3.3125 9.1875 C2.3225 8.8575 1.3325 8.5275 0.3125 8.1875 C0.1578125 9.0228125 0.1578125 9.0228125 0 9.875 C-0.81883577 12.62926578 -2.14603781 14.77477657 -3.6875 17.1875 C-7.5625 15.4375 -7.5625 15.4375 -8.6875 13.1875 C-9.0175 14.1775 -9.3475 15.1675 -9.6875 16.1875 C-10.6775 16.5175 -11.6675 16.8475 -12.6875 17.1875 C-6.9716132 -0.30311362 -6.9716132 -0.30311362 0 0 Z " fill="#B7BFBE" transform="translate(290.6875,206.8125)"/>
<path d="M0 0 C0.99 0.66 1.98 1.32 3 2 C2 5 2 5 0.109375 5.95703125 C-1.05851562 6.38048828 -1.05851562 6.38048828 -2.25 6.8125 C-9.13108286 9.68507903 -11.94072529 14.23739275 -15 21 C-15.33 21 -15.66 21 -16 21 C-17.17704278 15.96551999 -17.62535782 12.23715734 -14.875 7.6875 C-10.88599823 2.10956437 -6.96522029 -1.86871764 0 0 Z " fill="#CD3E3F" transform="translate(213,83)"/>
<path d="M0 0 C0.33 0.66 0.66 1.32 1 2 C1.66 2 2.32 2 3 2 C3 2.66 3 3.32 3 4 C8.94 3.505 8.94 3.505 15 3 C13.90931332 6.77545388 13.0916909 9.47043472 10 12 C10.875 7.25 10.875 7.25 12 5 C10.56138706 5.08746284 9.12402492 5.19565348 7.6875 5.3125 C6.88699219 5.37050781 6.08648437 5.42851562 5.26171875 5.48828125 C2.50183299 6.11271136 1.67838752 6.73612847 0 9 C-1.21866975 11.71825785 -1.21866975 11.71825785 -2.1875 14.6875 C-2.53167969 15.68136719 -2.87585938 16.67523438 -3.23046875 17.69921875 C-3.48441406 18.45847656 -3.73835938 19.21773437 -4 20 C-4.66 20 -5.32 20 -6 20 C-6.41713515 21.43146378 -6.8080497 22.87058886 -7.1875 24.3125 C-7.40792969 25.11300781 -7.62835938 25.91351563 -7.85546875 26.73828125 C-8.26194505 29.08969364 -8.26194505 29.08969364 -6.55078125 30.79296875 C-6.03902344 31.19128906 -5.52726562 31.58960938 -5 32 C-7.64 31.67 -10.28 31.34 -13 31 C-12.38262836 28.15253078 -11.49345685 25.81718261 -10.125 23.25 C-8.44006796 19.97072366 -7.10431592 16.69555431 -5.859375 13.23046875 C-4.12460974 8.72796436 -2.03400495 4.37351263 0 0 Z " fill="#DCDDD9" transform="translate(283,202)"/>
<path d="M0 0 C-0.61152095 7.3382514 -3.26419582 13.31703498 -8 19 C-3.17805357 18.67495741 -3.17805357 18.67495741 0.9375 16.4375 C1.4634375 15.7259375 1.4634375 15.7259375 2 15 C1.01 17.475 1.01 17.475 0 20 C-2.97 20 -5.94 20 -9 20 C-8.54427812 17.34162239 -8.01869055 15.04287831 -6.9375 12.5625 C-5.65641847 9.51564548 -5.65641847 9.51564548 -6 4 C-11.94 4.33 -17.88 4.66 -24 5 C-16.66113717 1.33056858 -8.22140398 -0.57358632 0 0 Z " fill="#371319" transform="translate(145,114)"/>
<path d="M0 0 C0 0.66 0 1.32 0 2 C-1.20398438 2.49371094 -2.40796875 2.98742187 -3.6484375 3.49609375 C-5.22397468 4.14318938 -6.79949462 4.79032697 -8.375 5.4375 C-9.1690625 5.76298828 -9.963125 6.08847656 -10.78125 6.42382812 C-11.54179687 6.73642578 -12.30234375 7.04902344 -13.0859375 7.37109375 C-13.7876709 7.65911865 -14.4894043 7.94714355 -15.21240234 8.24389648 C-16.49409959 8.78601836 -17.75528511 9.37764255 -19 10 C-21.3329866 10.04022391 -23.66706666 10.04320247 -26 10 C-26 8.68 -26 7.36 -26 6 C-23.60539412 5.18372554 -21.20943474 4.37188355 -18.8125 3.5625 C-18.13896484 3.33240234 -17.46542969 3.10230469 -16.77148438 2.86523438 C-10.98092896 0.91621816 -6.10694216 -0.14202191 0 0 Z " fill="#EEF0F2" transform="translate(163,72)"/>
<path d="M0 0 C0.33 0 0.66 0 1 0 C1 1.65 1 3.3 1 5 C1.99 4.67 2.98 4.34 4 4 C4.66 2.68 5.32 1.36 6 0 C6 6.93 6 13.86 6 21 C4.02 21 2.04 21 0 21 C0 14.07 0 7.14 0 0 Z " fill="#C03942" transform="translate(168,112)"/>
<path d="M0 0 C-1.15401258 5.87497315 -2.6296858 11.65232992 -7 16 C-10.8125 16.5 -10.8125 16.5 -14 16 C-13.71125 15.42378906 -13.4225 14.84757813 -13.125 14.25390625 C-12.41244341 12.82631892 -11.70363441 11.39684971 -11 9.96484375 C-10.67 9.29582031 -10.34 8.62679687 -10 7.9375 C-9.505 6.93009766 -9.505 6.93009766 -9 5.90234375 C-6.45352497 1.05807289 -5.53727956 0 0 0 Z " fill="#C23D3D" transform="translate(151,117)"/>
<path d="M0 0 C3.33409072 0 5.38865294 0.44687647 7.88671875 2.70703125 C12.22575089 7.6100466 15.3766042 11.22112443 15 18 C12.1259578 18.50612064 9.25097127 19.00506541 6.375 19.5 C5.56675781 19.64308594 4.75851563 19.78617188 3.92578125 19.93359375 C-0.43877864 20.67876251 -4.55238129 21.17272306 -9 21 C-9 20.34 -9 19.68 -9 19 C-5.37 18.67 -1.74 18.34 2 18 C2 17.34 2 16.68 2 16 C5.63 16 9.26 16 13 16 C12.34 14.68 11.68 13.36 11 12 C11 10.68 11 9.36 11 8 C10.46375 7.731875 9.9275 7.46375 9.375 7.1875 C8.59125 6.795625 7.8075 6.40375 7 6 C5.948125 5.525625 4.89625 5.05125 3.8125 4.5625 C1 3 1 3 0 0 Z " fill="#431620" transform="translate(130,90)"/>
<path d="M0 0 C0.99 0.33 1.98 0.66 3 1 C3.33 2.98 3.66 4.96 4 7 C4.99 7.33 5.98 7.66 7 8 C7 8.66 7 9.32 7 10 C6.34 10 5.68 10 5 10 C5 11.98 5 13.96 5 16 C3.35 16 1.7 16 0 16 C0 15.34 0 14.68 0 14 C-0.66 14 -1.32 14 -2 14 C-1.67 11.69 -1.34 9.38 -1 7 C-3.31 7 -5.62 7 -8 7 C-8.33 7.66 -8.66 8.32 -9 9 C-9 8.01 -9 7.02 -9 6 C-6.36 6 -3.72 6 -1 6 C-0.67 4.02 -0.34 2.04 0 0 Z " fill="#DA414B" transform="translate(169,235)"/>
<path d="M0 0 C0.66 0 1.32 0 2 0 C2.13277344 0.75925781 2.26554688 1.51851563 2.40234375 2.30078125 C2.57894531 3.29464844 2.75554687 4.28851563 2.9375 5.3125 C3.11152344 6.29863281 3.28554687 7.28476563 3.46484375 8.30078125 C3.95746847 11.08189213 3.95746847 11.08189213 5 14 C5.66 14 6.32 14 7 14 C6.83628906 13.43796875 6.67257813 12.8759375 6.50390625 12.296875 C5.97135003 9.86940944 5.90101319 7.73110319 5.9375 5.25 C5.94652344 4.45078125 5.95554688 3.6515625 5.96484375 2.828125 C5.97644531 2.22484375 5.98804688 1.6215625 6 1 C6.33 1 6.66 1 7 1 C7.25523437 2.08667969 7.25523437 2.08667969 7.515625 3.1953125 C8.95915692 8.95408347 10.46507903 13.24614077 14 18 C14 18.66 14 19.32 14 20 C10.8125 20.5 10.8125 20.5 7 20 C4.76312436 17.61824899 3.40517198 14.93110092 2 12 C1.566875 11.154375 1.13375 10.30875 0.6875 9.4375 C-0.21384591 6.24181904 -0.12945694 3.30115204 0 0 Z " fill="#A53230" transform="translate(191,113)"/>
<path d="M0 0 C3.93168469 1.23416111 5.23636731 3.68334876 7.09765625 7.21484375 C7.60619141 8.22224609 7.60619141 8.22224609 8.125 9.25 C8.47175781 9.90613281 8.81851563 10.56226563 9.17578125 11.23828125 C11.16546728 15.07281026 12.74960634 18.84920868 14 23 C15.98 22.67 17.96 22.34 20 22 C20 22.99 20 23.98 20 25 C17.36 25 14.72 25 12 25 C10.17638933 21.77698876 8.36812335 18.54561741 6.5625 15.3125 C5.7880957 13.94448242 5.7880957 13.94448242 4.99804688 12.54882812 C4.25844727 11.21948242 4.25844727 11.21948242 3.50390625 9.86328125 C3.04830322 9.05157471 2.5927002 8.23986816 2.12329102 7.40356445 C0.96551507 4.9262108 0.4212373 2.69298472 0 0 Z " fill="#ECF0F1" transform="translate(45,211)"/>
<path d="M0 0 C4.02492284 1.02328547 6.53229074 2.24402868 9.6875 4.9375 C9.6875 6.2575 9.6875 7.5775 9.6875 8.9375 C7.58087849 8.70910737 5.47714049 8.45400087 3.375 8.1875 C2.20324219 8.04828125 1.03148437 7.9090625 -0.17578125 7.765625 C-3.3125 6.9375 -3.3125 6.9375 -5.23046875 4.859375 C-5.58753906 4.22515625 -5.94460937 3.5909375 -6.3125 2.9375 C-4.3597255 0.0657728 -3.55006733 -0.0669824 0 0 Z " fill="#C04244" transform="translate(131.3125,82.0625)"/>
<path d="M0 0 C-0.33 0.99 -0.66 1.98 -1 3 C-1.6290625 3.03738281 -2.258125 3.07476562 -2.90625 3.11328125 C-8.83768122 3.56885805 -13.49773237 4.77978674 -19 7 C-19.99 7 -20.98 7 -22 7 C-21.41196203 10.02419525 -20.77321882 13.01758453 -20 16 C-23.43595166 14.47291037 -26.11912454 12.40072955 -29 10 C-28.67 9.01 -28.34 8.02 -28 7 C-25.85449219 6.0168457 -25.85449219 6.0168457 -23.046875 5.17578125 C-22.03496094 4.86962891 -21.02304687 4.56347656 -19.98046875 4.24804688 C-18.91441406 3.93931641 -17.84835938 3.63058594 -16.75 3.3125 C-15.69941406 2.99216797 -14.64882812 2.67183594 -13.56640625 2.34179688 C-8.90459487 0.95625217 -4.8980949 -0.2023319 0 0 Z " fill="#03080E" transform="translate(29,150)"/>
<path d="M0 0 C0 0.66 0 1.32 0 2 C-0.99 2 -1.98 2 -3 2 C-3.66 3.32 -4.32 4.64 -5 6 C-5.99 6 -6.98 6 -8 6 C-8 6.66 -8 7.32 -8 8 C-6.68 8.33 -5.36 8.66 -4 9 C-5.43648264 10.12629875 -6.87422585 11.2509899 -8.3125 12.375 C-9.11300781 13.00148437 -9.91351563 13.62796875 -10.73828125 14.2734375 C-12.44663212 15.57756718 -14.21172726 16.80781817 -16 18 C-15.76210676 13.3286419 -15.04636816 10.07136672 -11.7109375 6.65625 C-3.3423913 0 -3.3423913 0 0 0 Z " fill="#BA3535" transform="translate(103,120)"/>
<path d="M0 0 C1.60495567 0.11442461 3.20898119 0.24194694 4.8125 0.375 C5.70582031 0.44460937 6.59914062 0.51421875 7.51953125 0.5859375 C10 1 10 1 13 3 C11.741875 3.020625 10.48375 3.04125 9.1875 3.0625 C8.47980469 3.07410156 7.77210938 3.08570312 7.04296875 3.09765625 C5 3 5 3 2 2 C2.34933594 2.88042969 2.69867188 3.76085937 3.05859375 4.66796875 C3.51363281 5.82941406 3.96867188 6.99085937 4.4375 8.1875 C5.11619141 9.91033203 5.11619141 9.91033203 5.80859375 11.66796875 C6.81093301 14.47123233 7.52012795 17.07112576 8 20 C4.7 20 1.4 20 -2 20 C-2.33 18.35 -2.66 16.7 -3 15 C-2.649375 15.474375 -2.29875 15.94875 -1.9375 16.4375 C0.84163543 18.67873825 3.5144717 18.67117658 7 19 C6.57847656 18.38253906 6.15695313 17.76507813 5.72265625 17.12890625 C1.91132231 11.23703237 0.22652989 7.02242668 0 0 Z " fill="#3A0D15" transform="translate(198,114)"/>
<path d="M0 0 C0.33 0 0.66 0 1 0 C1 6.93 1 13.86 1 21 C-1.97 21 -4.94 21 -8 21 C-8.66 20.34 -9.32 19.68 -10 19 C-7.36 19 -4.72 19 -2 19 C-2.10699219 18.04738281 -2.21398437 17.09476563 -2.32421875 16.11328125 C-2.44410156 14.85902344 -2.56398438 13.60476562 -2.6875 12.3125 C-2.81511719 11.07113281 -2.94273438 9.82976562 -3.07421875 8.55078125 C-2.99368508 4.69788082 -2.33335713 3.01319946 0 0 Z " fill="#EDF2EE" transform="translate(119,206)"/>
<path d="M0 0 C0.33 0 0.66 0 1 0 C1 8.58 1 17.16 1 26 C4.3 26 7.6 26 11 26 C7.41087588 29.58912412 6.22706417 29.44420474 1.3125 29.6875 C0.13300781 29.75324219 -1.04648438 29.81898438 -2.26171875 29.88671875 C-3.61716797 29.94279297 -3.61716797 29.94279297 -5 30 C-4.34 28.68 -3.68 27.36 -3 26 C-2.01 26 -1.02 26 0 26 C0 17.42 0 8.84 0 0 Z " fill="#E3E8E8" transform="translate(83,203)"/>
<path d="M0 0 C0 0.66 0 1.32 0 2 C-0.73605469 2.36351563 -1.47210938 2.72703125 -2.23046875 3.1015625 C-8.73871991 6.30121343 -8.73871991 6.30121343 -13.8125 11.3125 C-16 14 -16 14 -19.3125 14.875 C-20.6428125 14.936875 -20.6428125 14.936875 -22 15 C-23.45606519 10.47907032 -22.27032841 7.48351204 -21 3 C-19.68 3.33 -18.36 3.66 -17 4 C-17.99 6.31 -18.98 8.62 -20 11 C-19.67 11.33 -19.34 11.66 -19 12 C-18.05125 11.13375 -17.1025 10.2675 -16.125 9.375 C-5.20982143 0 -5.20982143 0 0 0 Z " fill="#38141C" transform="translate(108,124)"/>
<path d="M0 0 C0.66 0 1.32 0 2 0 C2.02894547 3.45831586 2.04678 6.91660072 2.0625 10.375 C2.07087891 11.35984375 2.07925781 12.3446875 2.08789062 13.359375 C2.09111328 14.30039063 2.09433594 15.24140625 2.09765625 16.2109375 C2.10289307 17.08024902 2.10812988 17.94956055 2.11352539 18.84521484 C2 21 2 21 1 23 C6.94 23 12.88 23 19 23 C19 23.33 19 23.66 19 24 C12.07 24 5.14 24 -2 24 C-1.67 22.35 -1.34 20.7 -1 19 C-0.86271858 17.454319 -0.7574037 15.90547779 -0.68359375 14.35546875 C-0.62075195 13.09379883 -0.62075195 13.09379883 -0.55664062 11.80664062 C-0.49766602 10.51016602 -0.49766602 10.51016602 -0.4375 9.1875 C-0.37272461 7.86202148 -0.37272461 7.86202148 -0.30664062 6.50976562 C-0.20108464 4.34000377 -0.10008929 2.1700209 0 0 Z " fill="#F9FDFB" transform="translate(184,200)"/>
<path d="M0 0 C2.43375 0.020625 4.8675 0.04125 7.375 0.0625 C7.375 6.9925 7.375 13.9225 7.375 21.0625 C7.045 21.0625 6.715 21.0625 6.375 21.0625 C5.88 11.6575 5.88 11.6575 5.375 2.0625 C-0.565 2.5575 -0.565 2.5575 -6.625 3.0625 C-7.615 5.7025 -8.605 8.3425 -9.625 11.0625 C-10.62812353 7.05000587 -10.58881672 5.00538658 -9.625 1.0625 C-6.56118406 -0.46940797 -3.35534134 -0.03993613 0 0 Z " fill="#56161F" transform="translate(160.625,111.9375)"/>
<path d="M0 0 C2 1.1875 2 1.1875 3 3 C3.1875 5.6875 3.1875 5.6875 3 8 C1.68 7.67 0.36 7.34 -1 7 C-0.01 6.01 0.98 5.02 2 4 C-0.37500897 2.44710952 -1.89152359 2.00246537 -4.75 1.9375 C-11.76950462 4.23233805 -16.26449027 9.87376405 -20 16 C-20.33 16 -20.66 16 -21 16 C-20.67 13.69 -20.34 11.38 -20 9 C-19.195625 8.7525 -18.39125 8.505 -17.5625 8.25 C-16.2940625 7.63125 -16.2940625 7.63125 -15 7 C-14.855625 6.360625 -14.71125 5.72125 -14.5625 5.0625 C-14 3 -14 3 -11.4375 1.25 C-7.16635738 -0.30314277 -4.5222316 -0.44480967 0 0 Z " fill="#3B1319" transform="translate(214,81)"/>
<path d="M0 0 C0.66 0.33 1.32 0.66 2 1 C0 4 0 4 -1.8125 4.375 C-5.15220358 5.32920102 -6.78140933 7.41164421 -9 10 C-9 10.99 -9 11.98 -9 13 C-11.67801974 15.4796479 -14.52160392 16.92972428 -18 18 C-18.99 17.67 -19.98 17.34 -21 17 C-15.11321543 10.55355633 -7.86437217 3.93218608 0 0 Z " fill="#030A11" transform="translate(122,75)"/>
<path d="M0 0 C0.99 0.66 1.98 1.32 3 2 C3 2.99 3 3.98 3 5 C12.24 5 21.48 5 31 5 C31 5.33 31 5.66 31 6 C25.71113255 7.04043294 20.49479582 7.28456986 15.125 7.5 C9.02742213 7.74682849 3.04661708 8.15824356 -3 9 C-2.01 6.03 -1.02 3.06 0 0 Z " fill="#BFC3C4" transform="translate(128,219)"/>
<path d="M0 0 C0.33 0 0.66 0 1 0 C1 10.89 1 21.78 1 33 C5.95 33 10.9 33 16 33 C16 30.36 16 27.72 16 25 C16.99 25 17.98 25 19 25 C18.34 27.97 17.68 30.94 17 34 C11.39 34 5.78 34 0 34 C0 22.78 0 11.56 0 0 Z " fill="#58151C" transform="translate(174,72)"/>
<path d="M0 0 C13.39285714 -0.13392857 13.39285714 -0.13392857 17 1 C17.12117188 1.56847656 17.24234375 2.13695313 17.3671875 2.72265625 C18.41322054 7.54245464 19.59204484 12.2732934 21 17 C18 16 18 16 16.8515625 14.234375 C15.44779232 10.55108809 15.34546612 6.91528266 15 3 C10.38 2.34 5.76 1.68 1 1 C1 7.27 1 13.54 1 20 C0.67 20 0.34 20 0 20 C0 13.4 0 6.8 0 0 Z " fill="#52141C" transform="translate(174,112)"/>
<path d="M0 0 C5.15813398 0.57668579 9.17181577 2.20213742 13.75 4.5 C14.44867188 4.84804687 15.14734375 5.19609375 15.8671875 5.5546875 C22.15912491 8.82835235 27.06869001 12.87902424 32 18 C31.34 18.33 30.68 18.66 30 19 C29.01 18.34 28.02 17.68 27 17 C27 16.34 27 15.68 27 15 C26.484375 14.7525 25.96875 14.505 25.4375 14.25 C22.22815849 12.60418384 19.12414336 10.8023904 16 9 C16 8.34 16 7.68 16 7 C13.74957232 6.433384 11.49760114 5.88203931 9.23828125 5.3515625 C8.27277344 5.11179687 7.30726563 4.87203125 6.3125 4.625 C5.33925781 4.39039062 4.36601562 4.15578125 3.36328125 3.9140625 C2.58339844 3.61242187 1.80351562 3.31078125 1 3 C0.67 2.01 0.34 1.02 0 0 Z " fill="#2A0F17" transform="translate(219,119)"/>
<path d="M0 0 C7.35844601 1.75127943 12.9427854 4.47903548 19 9 C18.01 9.33 17.02 9.66 16 10 C16 10.66 16 11.32 16 12 C14.35 12.66 12.7 13.32 11 14 C10.34 12.02 9.68 10.04 9 8 C9.66 7.67 10.32 7.34 11 7 C7.37 5.35 3.74 3.7 0 2 C0 1.34 0 0.68 0 0 Z " fill="#090E15" transform="translate(204,69)"/>
<path d="M0 0 C2.27864583 0.06510417 4.55729167 0.13020833 6.8359375 0.1953125 C6.5059375 3.1653125 6.1759375 6.1353125 5.8359375 9.1953125 C4.8459375 8.2053125 3.8559375 7.2153125 2.8359375 6.1953125 C0.78197024 6.60461236 0.78197024 6.60461236 -1.1640625 7.1953125 C-1.8240625 6.5353125 -2.4840625 5.8753125 -3.1640625 5.1953125 C-4.1540625 5.5253125 -5.1440625 5.8553125 -6.1640625 6.1953125 C-3.41682632 0.30837783 -3.41682632 0.30837783 0 0 Z " fill="#C2C6C3" transform="translate(288.1640625,206.8046875)"/>
<path d="M0 0 C-0.33 7.26 -0.66 14.52 -1 22 C-1.66 21.67 -2.32 21.34 -3 21 C-3.3979204 17.63576389 -3.50912623 14.29009676 -3.65625 10.90625 C-3.82640625 9.46765625 -3.82640625 9.46765625 -4 8 C-4.66 7.67 -5.32 7.34 -6 7 C-5.34 7 -4.68 7 -4 7 C-4 6.34 -4 5.68 -4 5 C-4.66 4.67 -5.32 4.34 -6 4 C-2.25 0 -2.25 0 0 0 Z " fill="#E6EAE4" transform="translate(270,210)"/>
<path d="M0 0 C1.65 0.33 3.3 0.66 5 1 C5 3.31 5 5.62 5 8 C8.465 7.505 8.465 7.505 12 7 C12.33 8.65 12.66 10.3 13 12 C12.34 11.67 11.68 11.34 11 11 C11.33 10.34 11.66 9.68 12 9 C9.36 9 6.72 9 4 9 C3.71125 8.195625 3.4225 7.39125 3.125 6.5625 C2.26737432 3.8673532 2.26737432 3.8673532 0 3 C-0.33 4.98 -0.66 6.96 -1 9 C-3.64 9 -6.28 9 -9 9 C-8.67 8.34 -8.34 7.68 -8 7 C-6.02 7 -4.04 7 -2 7 C-1.855625 6.21625 -1.71125 5.4325 -1.5625 4.625 C-1 2 -1 2 0 0 Z " fill="#31131E" transform="translate(169,232)"/>
<path d="M0 0 C5.28 0 10.56 0 16 0 C16 0.33 16 0.66 16 1 C14.73542969 1.05607422 14.73542969 1.05607422 13.4453125 1.11328125 C11.80175781 1.21189453 11.80175781 1.21189453 10.125 1.3125 C9.03445312 1.37050781 7.94390625 1.42851562 6.8203125 1.48828125 C5.42425781 1.74158203 5.42425781 1.74158203 4 2 C1.57520264 5.63719605 1.61337423 7.85703482 1.375 12.1875 C1.25125 14.435625 1.1275 16.68375 1 19 C7.27 19 13.54 19 20 19 C20 19.33 20 19.66 20 20 C13.4 20 6.8 20 0 20 C0 13.4 0 6.8 0 0 Z " fill="#404348" transform="translate(198,190)"/>
<path d="M0 0 C0.33 0 0.66 0 1 0 C1 6.6 1 13.2 1 20 C-7.25 19.67 -15.5 19.34 -24 19 C-24 18.67 -24 18.34 -24 18 C-16.74 17.67 -9.48 17.34 -2 17 C-0.84429296 13.53287889 -0.67164707 10.4585044 -0.4375 6.8125 C-0.35371094 5.54019531 -0.26992187 4.26789063 -0.18359375 2.95703125 C-0.09271484 1.49330078 -0.09271484 1.49330078 0 0 Z " fill="#B8BCBE" transform="translate(223,207)"/>
<path d="M0 0 C1.765625 0.1015625 1.765625 0.1015625 4 1 C5.921875 3.8359375 5.921875 3.8359375 7.75 7.375 C8.36359375 8.53773438 8.9771875 9.70046875 9.609375 10.8984375 C11 14 11 14 11 17 C9.35 17 7.7 17 6 17 C6.66 16.67 7.32 16.34 8 16 C7.236875 15.030625 6.47375 14.06125 5.6875 13.0625 C2.76023816 9.00425063 1.33461331 4.78507697 0 0 Z " fill="#E4E7E8" transform="translate(62,217)"/>
<path d="M0 0 C1.27133789 0.00966797 1.27133789 0.00966797 2.56835938 0.01953125 C3.8899707 0.04466797 3.8899707 0.04466797 5.23828125 0.0703125 C6.57729492 0.08384766 6.57729492 0.08384766 7.94335938 0.09765625 C10.14610439 0.12121502 12.34830713 0.15410921 14.55078125 0.1953125 C14.55078125 0.8553125 14.55078125 1.5153125 14.55078125 2.1953125 C10.88498056 4.63917963 9.54099878 4.29472202 5.23828125 3.8828125 C4.12839844 3.78355469 3.01851562 3.68429688 1.875 3.58203125 C-1.25651514 3.21773043 -4.34534806 2.7447117 -7.44921875 2.1953125 C-4.2960709 0.09321393 -3.58818794 -0.0481636 0 0 Z " fill="#F0F4F3" transform="translate(251.44921875,214.8046875)"/>
<path d="M0 0 C0.33 0 0.66 0 1 0 C1 8.58 1 17.16 1 26 C0.01 26.33 -0.98 26.66 -2 27 C-1.86188078 22.68721615 -1.71321891 18.37486047 -1.5625 14.0625 C-1.50352539 12.21495117 -1.50352539 12.21495117 -1.44335938 10.33007812 C-1.40146484 9.16025391 -1.35957031 7.99042969 -1.31640625 6.78515625 C-1.27974854 5.70113525 -1.24309082 4.61711426 -1.20532227 3.50024414 C-1 1 -1 1 0 0 Z " fill="#F8FCFD" transform="translate(82,203)"/>
<path d="M0 0 C-0.33 0.99 -0.66 1.98 -1 3 C-10.35912329 3.99263429 -19.60394198 4.10731538 -29 4 C-25.24609037 1.59164759 -21.38530865 1.5990635 -17.0625 1.4375 C-11.32297219 1.19024262 -5.70444784 0 0 0 Z " fill="#F0F4F3" transform="translate(162,221)"/>
<path d="M0 0 C0.66 0 1.32 0 2 0 C1.68950274 1.43793392 1.3765224 2.8753318 1.0625 4.3125 C0.88847656 5.11300781 0.71445312 5.91351563 0.53515625 6.73828125 C0 9 0 9 -1 12 C-0.01 12.99 0.98 13.98 2 15 C-0.64 14.67 -3.28 14.34 -6 14 C-5.31113213 10.61108678 -4.01283514 7.81988387 -2.4375 4.75 C-1.75494141 3.41195312 -1.75494141 3.41195312 -1.05859375 2.046875 C-0.70925781 1.37140625 -0.35992187 0.6959375 0 0 Z " fill="#E4E8E7" transform="translate(276,219)"/>
<path d="M0 0 C-0.66 0.66 -1.32 1.32 -2 2 C-2.33 2.99 -2.66 3.98 -3 5 C-5.95664519 6.4783226 -8.74229737 6.06032783 -12 6 C-12 4.68 -12 3.36 -12 2 C-10.75579353 1.4654744 -9.50429064 0.94791389 -8.25 0.4375 C-7.55390625 0.14746094 -6.8578125 -0.14257812 -6.140625 -0.44140625 C-3.69987216 -1.07831803 -2.3596345 -0.80248831 0 0 Z " fill="#E2E0DE" transform="translate(149,76)"/>
<path d="M0 0 C0.99 0.33 1.98 0.66 3 1 C2.34 1 1.68 1 1 1 C0.05009864 4.52233771 0.05009864 4.52233771 0.75 8 C0.8325 8.66 0.915 9.32 1 10 C-1.25 12.75 -1.25 12.75 -4 15 C-4.99 15 -5.98 15 -7 15 C-6.34 13.02 -5.68 11.04 -5 9 C-4.34 9 -3.68 9 -3 9 C-2.80083984 8.15115234 -2.80083984 8.15115234 -2.59765625 7.28515625 C-2.42105469 6.55167969 -2.24445313 5.81820312 -2.0625 5.0625 C-1.88847656 4.33160156 -1.71445313 3.60070312 -1.53515625 2.84765625 C-1 1 -1 1 0 0 Z " fill="#29131E" transform="translate(154,114)"/>
<path d="M0 0 C0.66 0 1.32 0 2 0 C2.24887295 2.10192697 2.4734719 4.20673964 2.6875 6.3125 C2.81511719 7.48425781 2.94273437 8.65601562 3.07421875 9.86328125 C3 13 3 13 1.51953125 14.91796875 C1.01808594 15.27503906 0.51664063 15.63210937 0 16 C-1 15 -1 15 -1.1328125 12.3828125 C-1.13023437 11.30773437 -1.12765625 10.23265625 -1.125 9.125 C-1.12757813 8.05507812 -1.13015625 6.98515625 -1.1328125 5.8828125 C-1 3 -1 3 0 0 Z " fill="#D5464A" transform="translate(170,74)"/>
<path d="M0 0 C-0.33 0.99 -0.66 1.98 -1 3 C-3.65234375 4.203125 -3.65234375 4.203125 -6.9375 5.25 C-8.01902344 5.60578125 -9.10054688 5.9615625 -10.21484375 6.328125 C-13 7 -13 7 -15 6 C-14.67 4.68 -14.34 3.36 -14 2 C-12.22978678 1.663389 -10.45880326 1.33082707 -8.6875 1 C-7.70136719 0.814375 -6.71523437 0.62875 -5.69921875 0.4375 C-3 0 -3 0 0 0 Z " fill="#E2423E" transform="translate(127,113)"/>
<path d="M0 0 C0 0.99 0 1.98 0 3 C-1.8984375 4.82421875 -1.8984375 4.82421875 -4.375 6.6875 C-5.18710938 7.31011719 -5.99921875 7.93273437 -6.8359375 8.57421875 C-9 10 -9 10 -11 10 C-9.39365504 3.57462018 -6.93311949 0 0 0 Z " fill="#1C151C" transform="translate(213,89)"/>
<path d="M0 0 C0.33 0 0.66 0 1 0 C1.33 7.92 1.66 15.84 2 24 C3.32 24.33 4.64 24.66 6 25 C-0.75 29 -0.75 29 -3 29 C-2.67 27.68 -2.34 26.36 -2 25 C-1.67 25 -1.34 25 -1 25 C-0.67 16.75 -0.34 8.5 0 0 Z " fill="#DFE2DD" transform="translate(28,220)"/>
<path d="M0 0 C1.65 0.33 3.3 0.66 5 1 C4.01 1.66 3.02 2.32 2 3 C2 3.66 2 4.32 2 5 C4.97 5 7.94 5 11 5 C10.67 5.66 10.34 6.32 10 7 C7.4375 7.625 7.4375 7.625 5 8 C5.66 8.33 6.32 8.66 7 9 C6.67 9.99 6.34 10.98 6 12 C5.13375 11.38125 4.2675 10.7625 3.375 10.125 C0.24371814 8.15345216 -2.46384469 7.01033009 -6 6 C-6 5.67 -6 5.34 -6 5 C-4.02 5 -2.04 5 0 5 C0 3.35 0 1.7 0 0 Z " fill="#492A30" transform="translate(135,76)"/>
<path d="M0 0 C3.96 0 7.92 0 12 0 C11.01 0.33 10.02 0.66 9 1 C9 1.66 9 2.32 9 3 C10.423125 2.938125 10.423125 2.938125 11.875 2.875 C15 3 15 3 17 5 C8.585 5.495 8.585 5.495 0 6 C0 5.34 0 4.68 0 4 C1.98 4 3.96 4 6 4 C6 3.34 6 2.68 6 2 C3.03 1.505 3.03 1.505 0 1 C0 0.67 0 0.34 0 0 Z " fill="#C53B3D" transform="translate(151,107)"/>
<path d="M0 0 C0 2.64 0 5.28 0 8 C-1.98 8 -3.96 8 -6 8 C-6 5.69 -6 3.38 -6 1 C-1.125 0 -1.125 0 0 0 Z " fill="#A73430" transform="translate(174,125)"/>
<path d="M0 0 C0.99 0.66 1.98 1.32 3 2 C2.67 2.99 2.34 3.98 2 5 C-0.0625 5.6875 -0.0625 5.6875 -2 6 C-2 5.01 -2 4.02 -2 3 C-5.94727588 2.82057837 -8.5980513 2.90649311 -12 5 C-5.65096678 -1.51611304 -5.65096678 -1.51611304 0 0 Z " fill="#A3393A" transform="translate(213,83)"/>
<path d="M0 0 C0.99 0.33 1.98 0.66 3 1 C3.33 2.65 3.66 4.3 4 6 C3.01 6.495 3.01 6.495 2 7 C1.01 8.485 1.01 8.485 0 10 C-0.33 9.01 -0.66 8.02 -1 7 C-3.31 7 -5.62 7 -8 7 C-8.33 7.66 -8.66 8.32 -9 9 C-9 8.01 -9 7.02 -9 6 C-6.36 6 -3.72 6 -1 6 C-0.67 4.02 -0.34 2.04 0 0 Z " fill="#A33B48" transform="translate(169,235)"/>
<path d="M0 0 C0.33 0 0.66 0 1 0 C1 6.93 1 13.86 1 21 C1.66 21 2.32 21 3 21 C2.34 25.29 1.68 29.58 1 34 C0.67 34 0.34 34 0 34 C0 22.78 0 11.56 0 0 Z " fill="#01020A" transform="translate(15,179)"/>
<path d="M0 0 C0.99 0.33 1.98 0.66 3 1 C2.34 2.65 1.68 4.3 1 6 C1.66 6.33 2.32 6.66 3 7 C2.67 7.99 2.34 8.98 2 10 C-0.31 10 -2.62 10 -5 10 C-3.33333333 6.66666667 -1.66666667 3.33333333 0 0 Z " fill="#AC3531" transform="translate(142,123)"/>
<path d="M0 0 C1.09658936 3.28976808 0.79953138 4.71303767 0 8 C-1.65 8 -3.3 8 -5 8 C-4.01 7.34 -3.02 6.68 -2 6 C-7.94 5.01 -7.94 5.01 -14 4 C-14 3.67 -14 3.34 -14 3 C-9.23692563 2.04738513 -4.8333472 1.91666643 0 2 C0 1.34 0 0.68 0 0 Z " fill="#B23639" transform="translate(145,106)"/>
<path d="M0 0 C1.65 0 3.3 0 5 0 C5 0.66 5 1.32 5 2 C5.639375 2.2475 6.27875 2.495 6.9375 2.75 C9 4 9 4 9.75 6.125 C9.87375 7.053125 9.87375 7.053125 10 8 C10.66 8 11.32 8 12 8 C11.67 8.99 11.34 9.98 11 11 C9.16365304 9.35742342 7.3308593 7.71117305 5.5 6.0625 C4.97535156 5.59392578 4.45070312 5.12535156 3.91015625 4.64257812 C2.5878256 3.44904592 1.29166061 2.22665821 0 1 C0 0.67 0 0.34 0 0 Z " fill="#2D0E19" transform="translate(241,121)"/>
<path d="M0 0 C2.9719385 1.12451727 5.33440687 2.22293791 8 4 C8 4.99 8 5.98 8 7 C5.89521396 6.88590318 3.79115423 6.75834639 1.6875 6.625 C0.51574219 6.55539063 -0.65601563 6.48578125 -1.86328125 6.4140625 C-5 6 -5 6 -8 4 C-4.37 4 -0.74 4 3 4 C2.01 2.68 1.02 1.36 0 0 Z " fill="#A02B2A" transform="translate(224,113)"/>
<path d="M0 0 C0.33 0.66 0.66 1.32 1 2 C-0.21484375 4.8203125 -0.21484375 4.8203125 -1.9375 8.125 C-2.50339844 9.22070312 -3.06929688 10.31640625 -3.65234375 11.4453125 C-4.09707031 12.28835937 -4.54179687 13.13140625 -5 14 C-2.36 14.33 0.28 14.66 3 15 C3 15.33 3 15.66 3 16 C0.03 16 -2.94 16 -6 16 C-7.39746302 11.80761095 -5.84031875 9.89298197 -4 6 C-3.67 5.34 -3.34 4.68 -3 4 C-2.34 4 -1.68 4 -1 4 C-0.67 2.68 -0.34 1.36 0 0 Z " fill="#02060C" transform="translate(312,198)"/>
<path d="M0 0 C0.66 0 1.32 0 2 0 C2.33 7.26 2.66 14.52 3 22 C-0.63 21.34 -4.26 20.68 -8 20 C-8 19.67 -8 19.34 -8 19 C-5.03 19 -2.06 19 1 19 C0.67 12.73 0.34 6.46 0 0 Z " fill="#75767A" transform="translate(112,174)"/>
<path d="M0 0 C2 1.125 2 1.125 4 3 C4.25 6.1875 4.25 6.1875 4 9 C0.05860922 7.33248852 -2.7892812 4.77289351 -6 2 C-3.50907189 0.75453595 -2.58919267 1.2232422 0 2 C0 1.34 0 0.68 0 0 Z " fill="#6E252F" transform="translate(249,129)"/>
<path d="M0 0 C1.875 0.625 1.875 0.625 4 2 C5.25 5.125 5.25 5.125 6 8 C4.53919067 7.38080922 3.08142545 6.75443308 1.625 6.125 C0.81289062 5.77695313 0.00078125 5.42890625 -0.8359375 5.0703125 C-3 4 -3 4 -5 2 C-3.35 2 -1.7 2 0 2 C0 1.34 0 0.68 0 0 Z " fill="#8D272D" transform="translate(244,125)"/>
<path d="M0 0 C5.98993047 -0.3152595 9.63560356 0.31780178 15 3 C14.34 3.66 13.68 4.32 13 5 C8.18176895 4.66384435 4.32767253 2.99072936 0 1 C0 0.67 0 0.34 0 0 Z " fill="#D73A31" transform="translate(209,112)"/>
<path d="M0 0 C5.82828789 -0.19668013 10.80984807 0.39597126 16.4375 1.875 C17.15615234 2.04902344 17.87480469 2.22304687 18.61523438 2.40234375 C20.42945708 2.86489345 22.21823348 3.42496581 24 4 C24.33 4.66 24.66 5.32 25 6 C16.66666667 4.33333333 8.33333333 2.66666667 0 1 C0 0.67 0 0.34 0 0 Z " fill="#621719" transform="translate(199,107)"/>
<path d="M0 0 C1.65 0 3.3 0 5 0 C5.33 1.32 5.66 2.64 6 4 C3.64561267 5.42944945 2.51967567 6.08661261 -0.25 5.625 C-0.8275 5.41875 -1.405 5.2125 -2 5 C-1.34 3.35 -0.68 1.7 0 0 Z " fill="#E8E1DD" transform="translate(122,86)"/>
<path d="M0 0 C0.33 0.66 0.66 1.32 1 2 C1.99 2.33 2.98 2.66 4 3 C4.33 2.34 4.66 1.68 5 1 C5 1.99 5 2.98 5 4 C-0.83799592 5.69832609 -5.93107371 6.25287193 -12 6 C-12 5.67 -12 5.34 -12 5 C-10.906875 4.896875 -9.81375 4.79375 -8.6875 4.6875 C-5.0381552 4.00711368 -4.18832 3.76419369 -2 1 C-1.34 0.67 -0.68 0.34 0 0 Z " fill="#C3C7C8" transform="translate(69,231)"/>
<path d="M0 0 C0.33 0 0.66 0 1 0 C0.75648872 6.94007154 -1.06708042 10.17267808 -6 15 C-6.99 14.67 -7.98 14.34 -9 14 C-8.57847656 13.52949219 -8.15695313 13.05898437 -7.72265625 12.57421875 C-6.90087891 11.64029297 -6.90087891 11.64029297 -6.0625 10.6875 C-5.24458984 9.76517578 -5.24458984 9.76517578 -4.41015625 8.82421875 C-2.79918441 6.94758042 -2.79918441 6.94758042 -2 4 C-1.34 4 -0.68 4 0 4 C0 2.68 0 1.36 0 0 Z " fill="#E2E6E7" transform="translate(173,206)"/>
<path d="M0 0 C2.31 0 4.62 0 7 0 C6.67 2.64 6.34 5.28 6 8 C5.67 7.01 5.34 6.02 5 5 C4.34 4.67 3.68 4.34 3 4 C1 3 1 3 0 0 Z " fill="#CC6060" transform="translate(161,242)"/>
<path d="M0 0 C0.99 0 1.98 0 3 0 C2.34 2.97 1.68 5.94 1 9 C-3.95 9 -8.9 9 -14 9 C-14 8.67 -14 8.34 -14 8 C-9.38 8 -4.76 8 0 8 C0 5.36 0 2.72 0 0 Z " fill="#46131C" transform="translate(190,97)"/>
<path d="M0 0 C1.03253906 0.00676758 1.03253906 0.00676758 2.0859375 0.01367188 C3.76566335 0.02533664 5.44534375 0.04326729 7.125 0.0625 C7.125 0.3925 7.125 0.7225 7.125 1.0625 C3.825 1.0625 0.525 1.0625 -2.875 1.0625 C-2.875 1.7225 -2.875 2.3825 -2.875 3.0625 C-6.505 2.7325 -10.135 2.4025 -13.875 2.0625 C-13.875 1.7325 -13.875 1.4025 -13.875 1.0625 C-9.21962644 0.14157719 -4.72814567 -0.05955997 0 0 Z " fill="#E5E9E6" transform="translate(209.875,209.9375)"/>
<path d="M0 0 C1.98 0.99 1.98 0.99 4 2 C4 2.66 4 3.32 4 4 C5.98 4 7.96 4 10 4 C9.67 4.99 9.34 5.98 9 7 C8.2575 6.79375 7.515 6.5875 6.75 6.375 C3.67669159 5.95591249 2.57213134 6.38050989 0 8 C0 5.36 0 2.72 0 0 Z " fill="#B2464C" transform="translate(165,247)"/>
<path d="M0 0 C0.68707555 2.49064888 1 4.37886292 1 7 C2.39195915 9.7839183 4.15575779 9.97898997 7 11 C5.375 11.6875 5.375 11.6875 3 12 C-0.25 10.5625 -0.25 10.5625 -3 9 C-2.44271087 5.65626525 -1.64826111 2.96687001 0 0 Z " fill="#38393D" transform="translate(294,213)"/>
<path d="M0 0 C2.64 0.66 5.28 1.32 8 2 C5.2403139 3.83979073 3.70258118 4.48323221 0.5625 5.1875 C-0.19933594 5.36667969 -0.96117187 5.54585937 -1.74609375 5.73046875 C-4.12958496 6.0154963 -5.73104204 5.72875415 -8 5 C-5.625 3.9375 -5.625 3.9375 -3 3 C-2.34 3.33 -1.68 3.66 -1 4 C-0.67 2.68 -0.34 1.36 0 0 Z " fill="#070F17" transform="translate(56,247)"/>
<path d="M0 0 C4.6875 0.78125 4.6875 0.78125 9.375 1.5625 C10.674375 1.7790625 10.674375 1.7790625 12 2 C12 2.33 12 2.66 12 3 C5.565 3.495 5.565 3.495 -1 4 C-0.67 2.68 -0.34 1.36 0 0 Z " fill="#D2D5D6" transform="translate(79,229)"/>
<path d="M0 0 C1.32 0.66 2.64 1.32 4 2 C1.03 2 -1.94 2 -5 2 C-5 2.66 -5 3.32 -5 4 C-6.9375 3.625 -6.9375 3.625 -9 3 C-9.33 2.34 -9.66 1.68 -10 1 C-6.86358252 -0.56820874 -3.42820517 -0.38163039 0 0 Z " fill="#D54548" transform="translate(139,110)"/>
<path d="M0 0 C2.07703891 4.15407782 2.31513157 4.8354167 1 9 C0.34 9.66 -0.32 10.32 -1 11 C-1.6425235 13.06874034 -1.6425235 13.06874034 -2 15 C-2.66 14.67 -3.32 14.34 -4 14 C-2.68 9.38 -1.36 4.76 0 0 Z " fill="#050E15" transform="translate(82,121)"/>
<path d="M0 0 C3.3 0 6.6 0 10 0 C7.13771795 1.43114103 5.00359672 2.40726882 2 3.1875 C1.34 3.36667969 0.68 3.54585938 0 3.73046875 C-2.26540976 4.03576811 -3.835092 3.68136613 -6 3 C-4.02 2.67 -2.04 2.34 0 2 C0 1.34 0 0.68 0 0 Z " fill="#B6474B" transform="translate(134,112)"/>
<path d="M0 0 C1.2065625 0.0309375 1.2065625 0.0309375 2.4375 0.0625 C1.7775 2.0425 1.1175 4.0225 0.4375 6.0625 C-1.2125 5.7325 -2.8625 5.4025 -4.5625 5.0625 C-3.43829114 0.08386076 -3.43829114 0.08386076 0 0 Z " fill="#DF3C32" transform="translate(194.5625,106.9375)"/>
<path d="M0 0 C0.99 0 1.98 0 3 0 C3 0.66 3 1.32 3 2 C8.94 2 14.88 2 21 2 C21 2.33 21 2.66 21 3 C14.07 3 7.14 3 0 3 C0 2.01 0 1.02 0 0 Z " fill="#F3F6F7" transform="translate(182,221)"/>
<path d="M0 0 C0.99 0.33 1.98 0.66 3 1 C2.01 3.97 1.02 6.94 0 10 C-0.33 9.01 -0.66 8.02 -1 7 C-1.66 7 -2.32 7 -3 7 C-1.125 1.125 -1.125 1.125 0 0 Z " fill="#DADDD9" transform="translate(279,212)"/>
<path d="M0 0 C0 0.66 0 1.32 0 2 C1.32 2 2.64 2 4 2 C4 2.66 4 3.32 4 4 C-1.0302076 3.47462276 -6.01885239 2.89405214 -11 2 C-11 1.67 -11 1.34 -11 1 C-3.375 0 -3.375 0 0 0 Z " fill="#B2B5B7" transform="translate(270,231)"/>
<path d="M0 0 C0.33 1.32 0.66 2.64 1 4 C-1.26877104 4.24875561 -3.54019735 4.47339246 -5.8125 4.6875 C-7.07707031 4.81511719 -8.34164062 4.94273437 -9.64453125 5.07421875 C-13 5 -13 5 -16 2 C-10.72 2.33 -5.44 2.66 0 3 C0 2.01 0 1.02 0 0 Z " fill="#C6CBCB" transform="translate(120,224)"/>
<path d="M0 0 C2.97 0.33 5.94 0.66 9 1 C9.33 1.99 9.66 2.98 10 4 C6.53058454 3.54177532 3.32604951 3.10868317 0 2 C0 1.34 0 0.68 0 0 Z " fill="#EFF1F0" transform="translate(292,224)"/>
<path d="M0 0 C0.8971875 0.309375 0.8971875 0.309375 1.8125 0.625 C1.4825 1.285 1.1525 1.945 0.8125 2.625 C-2.60982972 3.76577657 -5.27423217 3.72315117 -8.875 3.6875 C-10.64423828 3.67396484 -10.64423828 3.67396484 -12.44921875 3.66015625 C-13.35285156 3.64855469 -14.25648438 3.63695312 -15.1875 3.625 C-15.1875 3.295 -15.1875 2.965 -15.1875 2.625 C-14.15689453 2.55152344 -14.15689453 2.55152344 -13.10546875 2.4765625 C-11.75388672 2.36441406 -11.75388672 2.36441406 -10.375 2.25 C-9.48167969 2.18039063 -8.58835938 2.11078125 -7.66796875 2.0390625 C-4.51573774 1.51286331 -3.18789112 -0.54649562 0 0 Z " fill="#1F2327" transform="translate(217.1875,171.375)"/>
<path d="M0 0 C0 1.65 0 3.3 0 5 C-0.99 5 -1.98 5 -3 5 C-3 7.31 -3 9.62 -3 12 C-3.99 12 -4.98 12 -6 12 C-5.55149342 10.18504338 -5.09090429 8.37306866 -4.625 6.5625 C-4.36976563 5.55316406 -4.11453125 4.54382813 -3.8515625 3.50390625 C-2.6599064 0 -2.6599064 0 0 0 Z " fill="#211927" transform="translate(193,92)"/>
<path d="M0 0 C2.97 0.33 5.94 0.66 9 1 C9 1.99 9 2.98 9 4 C4.53159589 3.50351065 3.31012244 3.31012244 0 0 Z " fill="#E2E7E8" transform="translate(303,240)"/>
<path d="M0 0 C0.66 0.33 1.32 0.66 2 1 C1.67 2.32 1.34 3.64 1 5 C-0.485 4.7525 -0.485 4.7525 -2 4.5 C-6.02732942 3.91525483 -9.93474623 3.92867976 -14 4 C-14 3.67 -14 3.34 -14 3 C-12.60974609 2.80083984 -12.60974609 2.80083984 -11.19140625 2.59765625 C-9.99386719 2.42105469 -8.79632813 2.24445313 -7.5625 2.0625 C-6.36753906 1.88847656 -5.17257813 1.71445313 -3.94140625 1.53515625 C-1.12044324 1.31014787 -1.12044324 1.31014787 0 0 Z " fill="#BBBFC1" transform="translate(115,210)"/>
<path d="M0 0 C3.395177 3.07182681 5.87597306 6.13959595 6.1875 10.8125 C6.125625 11.534375 6.06375 12.25625 6 13 C5.34 13 4.68 13 4 13 C3.32942113 11.2097939 2.6636531 9.41778511 2 7.625 C1.62875 6.62726563 1.2575 5.62953125 0.875 4.6015625 C0 2 0 2 0 0 Z " fill="#B43847" transform="translate(144,90)"/>
<path d="M0 0 C-2.75264252 3.05849168 -5.00751252 4.87391379 -9 6 C-9.99 5.67 -10.98 5.34 -12 5 C-4.88610478 -0.74031891 -4.88610478 -0.74031891 0 0 Z " fill="#08111A" transform="translate(113,87)"/>
<path d="M0 0 C1.65 0 3.3 0 5 0 C5 2.64 5 5.28 5 8 C4.67 8 4.34 8 4 8 C4 6.02 4 4.04 4 2 C3.34 2 2.68 2 2 2 C1.67 3.98 1.34 5.96 1 8 C0.67 8 0.34 8 0 8 C0 5.36 0 2.72 0 0 Z " fill="#C34D54" transform="translate(168,72)"/>
<path d="M0 0 C0.99 0.33 1.98 0.66 3 1 C3 1.66 3 2.32 3 3 C6.3 3 9.6 3 13 3 C13.33 2.34 13.66 1.68 14 1 C14 1.99 14 2.98 14 4 C7.565 4.495 7.565 4.495 1 5 C0.67 3.35 0.34 1.7 0 0 Z " fill="#291729" transform="translate(152,100)"/>
<path d="M0 0 C0.53625 0.268125 1.0725 0.53625 1.625 0.8125 C-2.25064767 4.42389896 -2.25064767 4.42389896 -4.375 5.8125 C-6.75 5.625 -6.75 5.625 -8.375 4.8125 C-2.95961538 -0.23365385 -2.95961538 -0.23365385 0 0 Z " fill="#401117" transform="translate(211.375,89.1875)"/>
<path d="M0 0 C0 0.66 0 1.32 0 2 C-4.76307437 2.95261487 -9.1666528 3.08333357 -14 3 C-9.41201726 -0.05865516 -5.43293781 -0.12634739 0 0 Z " fill="#B1B7BD" transform="translate(163,72)"/>
<path d="M0 0 C1.9375 0.8125 1.9375 0.8125 4 2 C4.33 2.99 4.66 3.98 5 5 C1.535 6.485 1.535 6.485 -2 8 C-2 6.68 -2 5.36 -2 4 C-1.34 4 -0.68 4 0 4 C0 2.68 0 1.36 0 0 Z " fill="#292937" transform="translate(96,115)"/>
<path d="M0 0 C0.99 0.33 1.98 0.66 3 1 C2.02501855 2.5027237 1.04490611 4.00211963 0.0625 5.5 C-0.48277344 6.3353125 -1.02804688 7.170625 -1.58984375 8.03125 C-2.05519531 8.6809375 -2.52054687 9.330625 -3 10 C-3.33 10 -3.66 10 -4 10 C-4.41176754 6.39703406 -4.1535853 5.21597933 -2 2.1875 C-1.34 1.465625 -0.68 0.74375 0 0 Z " fill="#252C34" transform="translate(102,102)"/>
<path d="M0 0 C-0.33 0.99 -0.66 1.98 -1 3 C-3.31 3.33 -5.62 3.66 -8 4 C-7.67 3.01 -7.34 2.02 -7 1 C-4 0 -4 0 0 0 Z " fill="#EEEFEE" transform="translate(144,77)"/>
<path d="M0 0 C4 3 4 3 4.609375 5.26171875 C4.65578125 6.06222656 4.7021875 6.86273438 4.75 7.6875 C4.80671875 8.49574219 4.8634375 9.30398437 4.921875 10.13671875 C4.94765625 10.75160156 4.9734375 11.36648437 5 12 C4.34 12 3.68 12 3 12 C2.01 8.04 1.02 4.08 0 0 Z " fill="#38171D" transform="translate(161,244)"/>
<path d="M0 0 C0.99 0 1.98 0 3 0 C3 0.99 3 1.98 3 3 C4.32 3.33 5.64 3.66 7 4 C3.94736336 4.98120464 2.05263664 4.98120464 -1 4 C-0.67 2.68 -0.34 1.36 0 0 Z " fill="#EEF1F0" transform="translate(271,229)"/>
<path d="M0 0 C2.97 0 5.94 0 9 0 C7 4 7 4 5 5 C4.34 4.01 3.68 3.02 3 2 C2.01 1.34 1.02 0.68 0 0 Z " fill="#CFD1D0" transform="translate(241,146)"/>
<path d="M0 0 C0.99 0.33 1.98 0.66 3 1 C1.55746343 4.36591866 -0.33264727 6.51047079 -3 9 C-2.44271087 5.65626525 -1.64826111 2.96687001 0 0 Z " fill="#C9D0D1" transform="translate(100,108)"/>
<path d="M0 0 C1 2 1 2 0.22265625 4.3828125 C-0.16019531 5.28773437 -0.54304687 6.19265625 -0.9375 7.125 C-1.31777344 8.03507812 -1.69804687 8.94515625 -2.08984375 9.8828125 C-2.39019531 10.58148438 -2.69054687 11.28015625 -3 12 C-3.33 12 -3.66 12 -4 12 C-3.5317879 7.22423661 -2.75668002 3.95523655 0 0 Z " fill="#4E131B" transform="translate(202,95)"/>
<path d="M0 0 C0.33 0.66 0.66 1.32 1 2 C-0.09346881 3.34212062 -1.2001575 4.67347975 -2.3125 6 C-3.23482422 7.11375 -3.23482422 7.11375 -4.17578125 8.25 C-6 10 -6 10 -9 10 C-6.1310659 6.49352499 -3.2682346 3.14718888 0 0 Z " fill="#D7DDE0" transform="translate(111,95)"/>
<path d="M0 0 C2.64 0 5.28 0 8 0 C8.33 1.32 8.66 2.64 9 4 C5.30581799 4 3.22163822 2.71820705 0 1 C0 0.67 0 0.34 0 0 Z " fill="#1C161E" transform="translate(137,83)"/>
<path d="M0 0 C0.598125 0.20625 1.19625 0.4125 1.8125 0.625 C0.53803565 3.1739287 -0.65113493 3.43141644 -3.1875 4.625 C-4.1775 5.285 -5.1675 5.945 -6.1875 6.625 C-5.875 4.25 -5.875 4.25 -5.1875 1.625 C-2.1875 -0.375 -2.1875 -0.375 0 0 Z " fill="#24292C" transform="translate(269.1875,208.375)"/>
<path d="M0 0 C0.33 0.66 0.66 1.32 1 2 C0.22265625 3.7265625 0.22265625 3.7265625 -0.9375 5.625 C-1.618125 6.73875 -2.29875 7.8525 -3 9 C-3.33 9 -3.66 9 -4 9 C-4.25 6.1875 -4.25 6.1875 -4 3 C-2 1.125 -2 1.125 0 0 Z " fill="#F3F3EE" transform="translate(284,205)"/>
<path d="M0 0 C3.93619738 0.56231391 6.79192446 1.61685817 10 4 C10 4.99 10 5.98 10 7 C8.68 6.67 7.36 6.34 6 6 C6 5.01 6 4.02 6 3 C4.02 2.34 2.04 1.68 0 1 C0 0.67 0 0.34 0 0 Z " fill="#2D0F16" transform="translate(231,114)"/>
<path d="M0 0 C0 1.65 0 3.3 0 5 C-0.61875 5.12375 -1.2375 5.2475 -1.875 5.375 C-4.19120832 5.87197356 -4.19120832 5.87197356 -6 8 C-5.75 5.125 -5.75 5.125 -5 2 C-2.09090909 0 -2.09090909 0 0 0 Z " fill="#D84B4C" transform="translate(151,112)"/>
<path d="M0 0 C0.66 0 1.32 0 2 0 C2.33 2.97 2.66 5.94 3 9 C2.34 9 1.68 9 1 9 C-0.4783226 6.04335481 -0.06032783 3.25770263 0 0 Z " fill="#B13432" transform="translate(191,113)"/>
<path d="M0 0 C1.65 1.32 3.3 2.64 5 4 C0.9472484 4.98248524 -2.83861737 5.08159574 -7 5 C-7 4.67 -7 4.34 -7 4 C-5.02 4 -3.04 4 -1 4 C-0.67 2.68 -0.34 1.36 0 0 Z " fill="#060A16" transform="translate(183,264)"/>
<path d="M0 0 C0.33 0.99 0.66 1.98 1 3 C1.7425 2.649375 2.485 2.29875 3.25 1.9375 C6.1322726 0.95490707 7.21176345 0.9673198 10 2 C6.5980513 4.09350689 3.94727588 4.17942163 0 4 C0 2.68 0 1.36 0 0 Z " fill="#1A1016" transform="translate(163,253)"/>
<path d="M0 0 C2.6015625 -0.29296875 2.6015625 -0.29296875 5.625 -0.1875 C7.12933594 -0.14689453 7.12933594 -0.14689453 8.6640625 -0.10546875 C9.43492188 -0.07066406 10.20578125 -0.03585938 11 0 C7.83759418 2.10827055 6.49342531 2.33817465 2.8125 2.625 C1.46091797 2.73714844 1.46091797 2.73714844 0.08203125 2.8515625 C-0.94857422 2.92503906 -0.94857422 2.92503906 -2 3 C-1.34 2.01 -0.68 1.02 0 0 Z " fill="#070E18" transform="translate(66,246)"/>
<path d="M0 0 C0.99 0 1.98 0 3 0 C5 3 5 3 5 6 C3.35 6 1.7 6 0 6 C0.66 5.67 1.32 5.34 2 5 C1.34 3.35 0.68 1.7 0 0 Z " fill="#F0F4F6" transform="translate(68,228)"/>
<path d="M0 0 C0.66 0.33 1.32 0.66 2 1 C2 1.99 2 2.98 2 4 C2.66 4.33 3.32 4.66 4 5 C2.35 5.33 0.7 5.66 -1 6 C-1.99 4.68 -2.98 3.36 -4 2 C-2.125 0.9375 -2.125 0.9375 0 0 Z " fill="#D25D54" transform="translate(129,83)"/>
<path d="M0 0 C0.99 0.33 1.98 0.66 3 1 C1.75325341 3.49349318 0.30039894 4.46640071 -2 6 C-2.66 6 -3.32 6 -4 6 C-2.84826645 3.53199953 -1.95216435 1.95216435 0 0 Z " fill="#25262B" transform="translate(170,177)"/>
<path d="M0 0 C0.495 0.7425 0.495 0.7425 1 1.5 C4.17572747 3.88179561 7.10246066 3.19168226 11 3 C11 3.66 11 4.32 11 5 C7.7 5 4.4 5 1 5 C0.67 3.35 0.34 1.7 0 0 Z " fill="#44171C" transform="translate(195,129)"/>
<path d="M0 0 C1.65 0 3.3 0 5 0 C5.66 1.98 6.32 3.96 7 6 C1.125 2.25 1.125 2.25 0 0 Z " fill="#3F1016" transform="translate(241,121)"/>
<path d="M0 0 C1.98 1.65 3.96 3.3 6 5 C5.67 5.66 5.34 6.32 5 7 C4.01 7 3.02 7 2 7 C0.5393715 4.35261084 0 3.10551666 0 0 Z " fill="#060D17" transform="translate(239,93)"/>
<path d="M0 0 C-3.66291938 2.47785723 -6.6109185 3.48964169 -11 4 C-4.02040816 -2.01020408 -4.02040816 -2.01020408 0 0 Z " fill="#01090D" transform="translate(135,71)"/>
<path d="M0 0 C2.64 0.33 5.28 0.66 8 1 C8 1.66 8 2.32 8 3 C2.25 3.125 2.25 3.125 0 2 C0 1.34 0 0.68 0 0 Z " fill="#F2F6F3" transform="translate(303,227)"/>
<path d="M0 0 C2 2 2 2 2 5 C-1.63 4.34 -5.26 3.68 -9 3 C-9 2.67 -9 2.34 -9 2 C-6.03 2 -3.06 2 0 2 C0 1.34 0 0.68 0 0 Z " fill="#9DA1A6" transform="translate(113,191)"/>
<path d="M0 0 C1.65 0 3.3 0 5 0 C5.33 0.66 5.66 1.32 6 2 C5.67 2.99 5.34 3.98 5 5 C2 4 2 4 0.8125 1.9375 C0.544375 1.298125 0.27625 0.65875 0 0 Z " fill="#EBEEED" transform="translate(180,142)"/>
<path d="M0 0 C1.32 0.33 2.64 0.66 4 1 C3.67 1.99 3.34 2.98 3 4 C0.69 3.67 -1.62 3.34 -4 3 C-2.68 2.67 -1.36 2.34 0 2 C0 1.34 0 0.68 0 0 Z " fill="#C5474E" transform="translate(133,86)"/>
<path d="M0 0 C-0.33 0.99 -0.66 1.98 -1 3 C-3.64 2.67 -6.28 2.34 -9 2 C-9 1.67 -9 1.34 -9 1 C-5.846632 0.29925156 -3.27275026 0 0 0 Z " fill="#E3E7E4" transform="translate(162,221)"/>
<path d="M0 0 C0.66 0 1.32 0 2 0 C1.01 3.3 0.02 6.6 -1 10 C-2.10191901 5.59232396 -1.58706842 4.1077065 0 0 Z " fill="#2C2F32" transform="translate(276,213)"/>
<path d="M0 0 C1.25541557 3.76624671 0.37061958 5.37188934 -1 9 C-1.99 8.34 -2.98 7.68 -4 7 C-2.79618552 4.50638429 -1.54571278 2.31856917 0 0 Z " fill="#CCCFD0" transform="translate(182,175)"/>
<path d="M0 0 C-0.66 1.32 -1.32 2.64 -2 4 C-2.33 3.34 -2.66 2.68 -3 2 C-5.31 2 -7.62 2 -10 2 C-10 1.67 -10 1.34 -10 1 C-6.59437148 0.22157062 -3.49234244 -0.09978121 0 0 Z " fill="#03090F" transform="translate(64,142)"/>
<path d="M0 0 C0 1.65 0 3.3 0 5 C-1.65 5 -3.3 5 -5 5 C-4.01 4.34 -3.02 3.68 -2 3 C-3.32 2.34 -4.64 1.68 -6 1 C-3 0 -3 0 0 0 Z " fill="#BF3938" transform="translate(145,109)"/>
<path d="M0 0 C0.33 0 0.66 0 1 0 C0.25 6.75 0.25 6.75 -2 9 C-2 6.69 -2 4.38 -2 2 C-1.34 2 -0.68 2 0 2 C0 1.34 0 0.68 0 0 Z " fill="#C6424B" transform="translate(199,95)"/>
</svg>
